<svg xmlns="http://www.w3.org/2000/svg" width="24" height="24" viewBox="0 0 24 24">
  <g id="_photo_camera" data-name=" photo_camera" transform="translate(-134 -2944)">
    <rect id="Path" width="24" height="24" transform="translate(134 2944)" fill="rgba(0,0,0,0)"/>
    <path id="Icon" d="M154,2964H138a2,2,0,0,1-2-2v-12a2,2,0,0,1,2-2h3.171l1.229-1.35a2.027,2.027,0,0,1,1.481-.65h4.24a1.982,1.982,0,0,1,1.47.65l1.24,1.35H154a2,2,0,0,1,2,2v12A2,2,0,0,1,154,2964Zm-8-13a5,5,0,1,0,5,5A5.005,5.005,0,0,0,146,2951Zm0,8a3,3,0,1,1,3-3A3,3,0,0,1,146,2959Z" fill="#fff"/>
  </g>
</svg>
