<svg id="Group_4562" data-name="Group 4562" xmlns="http://www.w3.org/2000/svg" width="24" height="24" viewBox="0 0 24 24">
  <rect id="Rectangle_215" data-name="Rectangle 215" width="24" height="24" transform="translate(0 0)" fill="#fff" opacity="0"/>
  <g id="Path_2739" data-name="Path 2739" transform="translate(0 4.772)" fill="none">
    <path d="M7.158,0H16.7a7.158,7.158,0,0,1,7.158,7.158v4.772A7.158,7.158,0,0,1,16.7,19.087H7.158A7.158,7.158,0,0,1,0,11.929V7.158A7.158,7.158,0,0,1,7.158,0Z" stroke="none"/>
    <path d="M 7.157533645629883 2.000001907348633 C 4.313653945922852 2.000001907348633 1.999994277954102 4.313662528991699 1.999994277954102 7.15753173828125 L 1.999994277954102 11.92921257019043 C 1.999994277954102 14.7730827331543 4.313653945922852 17.08674240112305 7.157533645629883 17.08674240112305 L 16.70090484619141 17.08674240112305 C 19.54477500915527 17.08674240112305 21.85842514038086 14.7730827331543 21.85842514038086 11.92921257019043 L 21.85842514038086 7.15753173828125 C 21.85842514038086 4.313662528991699 19.54477500915527 2.000001907348633 16.70090484619141 2.000001907348633 L 7.157533645629883 2.000001907348633 M 7.157533645629883 1.9073486328125e-06 L 16.70090484619141 1.9073486328125e-06 C 20.65389442443848 1.9073486328125e-06 23.85842514038086 3.204532623291016 23.85842514038086 7.15753173828125 L 23.85842514038086 11.92921257019043 C 23.85842514038086 15.88221168518066 20.65389442443848 19.08674240112305 16.70090484619141 19.08674240112305 L 7.157533645629883 19.08674240112305 C 3.204534530639648 19.08674240112305 -5.7220458984375e-06 15.88221168518066 -5.7220458984375e-06 11.92921257019043 L -5.7220458984375e-06 7.15753173828125 C -5.7220458984375e-06 3.204532623291016 3.204534530639648 1.9073486328125e-06 7.157533645629883 1.9073486328125e-06 Z" stroke="none" fill="#fff"/>
  </g>
  <g id="Path_2740" data-name="Path 2740" transform="translate(7.158 0)" fill="none">
    <path d="M4.772,0A4.527,4.527,0,0,1,9.543,4.233V6.35H0V4.233A4.527,4.527,0,0,1,4.772,0Z" stroke="none"/>
    <path d="M 4.77168607711792 1.999996662139893 C 3.986746311187744 1.999996662139893 3.259836196899414 2.261376857757568 2.724855899810791 2.735976696014404 C 2.257426261901855 3.150646686553955 1.999996185302734 3.68234658241272 1.999996185302734 4.233126640319824 L 1.999996185302734 4.349696636199951 L 7.543375968933105 4.349696636199951 L 7.543375968933105 4.233126640319824 C 7.543375968933105 3.68234658241272 7.285945892333984 3.150646686553955 6.818515777587891 2.735976696014404 C 6.283535957336426 2.261376857757568 5.556626319885254 1.999996662139893 4.77168607711792 1.999996662139893 M 4.77168607711792 -3.337860107421875e-06 C 7.407015800476074 -3.337860107421875e-06 9.543375968933105 1.895236492156982 9.543375968933105 4.233126640319824 L 9.543375968933105 6.349696636199951 L -3.814697265625e-06 6.349696636199951 L -3.814697265625e-06 4.233126640319824 C -3.814697265625e-06 1.895236492156982 2.136355876922607 -3.337860107421875e-06 4.77168607711792 -3.337860107421875e-06 Z" stroke="none" fill="#fff"/>
  </g>
</svg>
