<svg xmlns="http://www.w3.org/2000/svg" xmlns:xlink="http://www.w3.org/1999/xlink" width="70.747" height="74.003" viewBox="0 0 70.747 74.003">
  <defs>
    <linearGradient id="linear-gradient" x1="0.5" x2="0.5" y2="1" gradientUnits="objectBoundingBox">
      <stop offset="0" stop-color="#f0de9f"/>
      <stop offset="1" stop-color="#786f50"/>
    </linearGradient>
    <linearGradient id="linear-gradient-2" x1="0.5" x2="0.5" y2="1" gradientUnits="objectBoundingBox">
      <stop offset="0" stop-color="#93bc6f"/>
      <stop offset="1" stop-color="#b1b963"/>
    </linearGradient>
    <linearGradient id="linear-gradient-8" x1="0.5" x2="0.5" y2="1" gradientUnits="objectBoundingBox">
      <stop offset="0" stop-color="#6b8faf"/>
      <stop offset="1" stop-color="#4cb199"/>
    </linearGradient>
    <clipPath id="clip-path">
      <ellipse id="Ellipse_73" data-name="Ellipse 73" cx="2.8" cy="6.675" rx="2.8" ry="6.675" transform="matrix(0.736, -0.677, 0.677, 0.736, 0, 3.79)" fill="none"/>
    </clipPath>
  </defs>
  <g id="Group_4866" data-name="Group 4866" transform="translate(-166.396 -128.97)">
    <g id="Group_4864" data-name="Group 4864" transform="translate(166.396 133.431)">
      <g id="Group_4973" data-name="Group 4973" transform="translate(0 -9.461)">
        <g id="Group_4867" data-name="Group 4867" transform="translate(11.218 70.158)" opacity="0.3">
          <ellipse id="Ellipse_70" data-name="Ellipse 70" cx="21.98" cy="2.923" rx="21.98" ry="2.923" transform="translate(0 3)" fill="#d1d1d1" opacity="0.48"/>
        </g>
        <g id="Group_4972" data-name="Group 4972" transform="translate(0 5)" opacity="0.67">
          <g id="Group_4930" data-name="Group 4930" transform="translate(7.61 0)">
            <g id="Group_4870" data-name="Group 4870" transform="translate(0.275 16.715)">
              <g id="Group_4868" data-name="Group 4868" transform="translate(0.069 0.038)">
                <path id="Path_3003" data-name="Path 3003" d="M1163.844,1431.706a3.335,3.335,0,0,1-.667-.068c-.031-.005-.065-.013-.1-.022l-35.4-8.329a3.487,3.487,0,0,1-2-1.312l-.022-.028a3.475,3.475,0,0,1-.674-2.065v-30.538a3.145,3.145,0,0,1,.531-1.752l.12.065a1.78,1.78,0,0,0-.02,1.538,2.359,2.359,0,0,0,1.648,1.113l37.331,8.567a3.289,3.289,0,0,1,2.547,3.214V1428.4A3.3,3.3,0,0,1,1163.844,1431.706Z" transform="translate(-1124.982 -1387.592)" fill="#f0de9f"/>
              </g>
              <g id="Group_4869" data-name="Group 4869">
                <path id="Path_3004" data-name="Path 3004" d="M1123.138,1386.276c-.586,1.368.231,2.409,1.675,2.745l.012,0,37.319,8.565a3.233,3.233,0,0,1,2.494,3.147v26.313a3.227,3.227,0,0,1-3.879,3.168q-.047-.008-.095-.021l-35.4-8.33a3.411,3.411,0,0,1-1.981-1.314h0a3.419,3.419,0,0,1-.66-2.024V1387.99a3.073,3.073,0,0,1,.519-1.714m-.114-.076a3.213,3.213,0,0,0-.542,1.79v30.538a3.543,3.543,0,0,0,.687,2.105l.041.056h0a3.556,3.556,0,0,0,2.019,1.31l35.4,8.33c.031.008.067.016.1.022a3.364,3.364,0,0,0,4.04-3.3v-26.313a3.357,3.357,0,0,0-2.6-3.281l-37.314-8.563h0l-.012,0h0a2.294,2.294,0,0,1-1.6-1.077,1.714,1.714,0,0,1,.022-1.48l-.24-.13Z" transform="translate(-1122.482 -1386.2)" fill="#66142e"/>
              </g>
            </g>
            <g id="Group_4874" data-name="Group 4874" transform="translate(0.137 20.428)">
              <g id="Group_4871" data-name="Group 4871" transform="translate(0)">
                <path id="Path_3005" data-name="Path 3005" d="M1118.454,1522.5a.273.273,0,0,1-.136-.036,3.161,3.161,0,0,1-.763-.6.275.275,0,0,1,.4-.373,2.613,2.613,0,0,0,.633.5.275.275,0,0,1-.137.513Z" transform="translate(-1117.482 -1521.397)" fill="#fff"/>
              </g>
              <g id="Group_4872" data-name="Group 4872" transform="translate(1.876 1.129)">
                <path id="Path_3006" data-name="Path 3006" d="M1222.384,1599.7a.274.274,0,0,1-.063-.007l-1.73-.407a.275.275,0,1,1,.126-.535l1.73.407a.275.275,0,0,1-.063.542Zm1.53-.487a.274.274,0,0,1-.249-.39.766.766,0,0,0,.069-.324v-1.324a.275.275,0,0,1,.549,0v1.324a1.312,1.312,0,0,1-.12.554A.275.275,0,0,1,1223.914,1599.218Zm-4.99-.327a.281.281,0,0,1-.063-.007l-1.73-.407a.275.275,0,0,1,.126-.535l1.73.407a.275.275,0,0,1-.063.542Zm-3.46-.814a.273.273,0,0,1-.063-.007l-1.73-.407a.275.275,0,0,1,.126-.535l1.73.407a.275.275,0,0,1-.063.542Zm-3.46-.814a.279.279,0,0,1-.063-.007l-1.73-.407a.275.275,0,0,1,.126-.535l1.73.407a.275.275,0,0,1-.063.542Zm-3.46-.814a.282.282,0,0,1-.063-.007l-1.73-.407a.275.275,0,0,1,.126-.535l1.73.407a.275.275,0,0,1-.063.542Zm15.464-.772a.275.275,0,0,1-.275-.275v-1.777a.275.275,0,0,1,.549,0v1.777A.275.275,0,0,1,1224.008,1595.677Zm-18.925-.042a.273.273,0,0,1-.063-.007l-1.73-.407a.275.275,0,0,1,.126-.535l1.73.407a.275.275,0,0,1-.063.542Zm-3.46-.814a.28.28,0,0,1-.063-.007l-1.73-.407a.275.275,0,0,1,.126-.535l1.73.407a.275.275,0,0,1-.063.542Zm-3.46-.814a.274.274,0,0,1-.063-.007l-1.73-.407a.275.275,0,0,1,.126-.535l1.73.407a.275.275,0,0,1-.063.542Zm-3.46-.814a.273.273,0,0,1-.063-.007l-1.73-.407a.275.275,0,0,1,.126-.535l1.73.407a.275.275,0,0,1-.062.542Zm-3.46-.814a.282.282,0,0,1-.063-.007l-1.73-.407a.275.275,0,0,1,.126-.535l1.73.407a.275.275,0,0,1-.063.542Zm32.765-.255a.275.275,0,0,1-.275-.275v-1.777a.275.275,0,0,1,.549,0v1.777A.275.275,0,0,1,1224.008,1592.122Zm-36.225-.559a.269.269,0,0,1-.063-.007l-.451-.106a8.379,8.379,0,0,1-1.3-.341.275.275,0,0,1,.186-.517,7.932,7.932,0,0,0,1.228.32l.463.109a.275.275,0,0,1-.063.542Zm36.225-3a.275.275,0,0,1-.275-.275v-1.777a.275.275,0,0,1,.549,0v1.777A.275.275,0,0,1,1224.008,1588.568Zm0-3.555a.275.275,0,0,1-.275-.275v-1.777a.275.275,0,0,1,.549,0v1.777A.275.275,0,0,1,1224.008,1585.013Zm0-3.555a.275.275,0,0,1-.275-.275v-1.777a.275.275,0,0,1,.549,0v1.777A.275.275,0,0,1,1224.008,1581.459Zm0-3.554a.275.275,0,0,1-.275-.275v-1.777a.275.275,0,0,1,.549,0v1.777A.275.275,0,0,1,1224.008,1577.9Zm0-3.555a.275.275,0,0,1-.275-.275V1572.3a.275.275,0,1,1,.549,0v1.777A.275.275,0,0,1,1224.008,1574.349Zm-1.072-2.955a.267.267,0,0,1-.062-.007l-1.732-.4a.275.275,0,0,1,.123-.535l1.732.4a.275.275,0,0,1-.061.542Zm-3.465-.8a.26.26,0,0,1-.062-.007l-1.732-.4a.275.275,0,0,1,.123-.535l1.732.4a.275.275,0,0,1-.061.542Zm-3.464-.8a.275.275,0,0,1-.062-.007l-1.732-.4a.275.275,0,1,1,.123-.535l1.732.4a.275.275,0,0,1-.061.542Zm-3.465-.8a.283.283,0,0,1-.062-.007l-1.732-.4a.275.275,0,1,1,.123-.535l1.732.4a.275.275,0,0,1-.061.542Zm-3.464-.8a.267.267,0,0,1-.062-.007l-1.732-.4a.275.275,0,1,1,.123-.535l1.732.4a.275.275,0,0,1-.061.542Zm-3.465-.8a.273.273,0,0,1-.062-.007l-1.732-.4a.275.275,0,0,1,.123-.535l1.732.4a.275.275,0,0,1-.061.542Zm-3.464-.8a.266.266,0,0,1-.062-.007l-1.732-.4a.275.275,0,1,1,.123-.535l1.732.4a.275.275,0,0,1-.061.542Zm-3.464-.8a.268.268,0,0,1-.062-.007l-1.732-.4a.275.275,0,1,1,.123-.535l1.732.4a.275.275,0,0,1-.061.542Zm-3.465-.8a.275.275,0,0,1-.062-.007l-1.732-.4a.275.275,0,1,1,.123-.535l1.732.4a.275.275,0,0,1-.061.542Zm-3.464-.8a.281.281,0,0,1-.062-.007l-1.732-.4a.275.275,0,0,1,.123-.536l1.732.4a.275.275,0,0,1-.061.542Zm-3.465-.8a.274.274,0,0,1-.062-.007l-1.732-.4a.275.275,0,0,1,.123-.535l1.732.4a.275.275,0,0,1-.061.542Z" transform="translate(-1185.787 -1562.497)" fill="#fff"/>
              </g>
              <g id="Group_4873" data-name="Group 4873" transform="translate(0 27.463)">
                <path id="Path_3007" data-name="Path 3007" d="M1118.149,2522.731a.275.275,0,0,1-.213-.1,2.26,2.26,0,0,1-.449-.9.275.275,0,0,1,.534-.129,1.717,1.717,0,0,0,.341.683.275.275,0,0,1-.213.448Z" transform="translate(-1117.479 -2521.39)" fill="#fff"/>
              </g>
            </g>
            <g id="Group_4877" data-name="Group 4877" transform="translate(0.412 16.791)" opacity="0.55">
              <g id="Group_4875" data-name="Group 4875">
                <path id="Path_3008" data-name="Path 3008" d="M1127.871,1390.289a3.069,3.069,0,0,0-.39,1.5v-1.1a3.07,3.07,0,0,1,.519-1.714A1.934,1.934,0,0,0,1127.871,1390.289Z" transform="translate(-1127.481 -1388.979)" fill="#fff"/>
              </g>
              <g id="Group_4876" data-name="Group 4876">
                <path id="Path_3009" data-name="Path 3009" d="M1127.871,1390.289a3.069,3.069,0,0,0-.39,1.5v-1.1a3.07,3.07,0,0,1,.519-1.714A1.934,1.934,0,0,0,1127.871,1390.289Z" transform="translate(-1127.481 -1388.979)" fill="none" stroke="#66142e" stroke-miterlimit="10" stroke-width="0"/>
              </g>
            </g>
            <g id="Group_4878" data-name="Group 4878" transform="translate(0.74 18.181)" opacity="0.55">
              <path id="Path_3010" data-name="Path 3010" d="M1181.116,1452.649v1.1a3.233,3.233,0,0,0-2.494-3.147l-37.319-8.565-.012,0c-1.34-.312-2.141-1.23-1.78-2.454a2.293,2.293,0,0,0,1.78,1.355l.012,0,37.319,8.565A3.233,3.233,0,0,1,1181.116,1452.649Z" transform="translate(-1139.424 -1439.579)" fill="#fff"/>
            </g>
            <g id="Group_4881" data-name="Group 4881" transform="translate(0.802 17.89)" opacity="0.55">
              <g id="Group_4879" data-name="Group 4879">
                <path id="Path_3011" data-name="Path 3011" d="M1141.81,1428.979a2.5,2.5,0,0,0-.1.291.792.792,0,0,1-.025-.08C1141.721,1429.119,1141.763,1429.048,1141.81,1428.979Z" transform="translate(-1141.681 -1428.979)" fill="#fff"/>
              </g>
              <g id="Group_4880" data-name="Group 4880">
                <path id="Path_3012" data-name="Path 3012" d="M1141.81,1428.979a2.5,2.5,0,0,0-.1.291.792.792,0,0,1-.025-.08C1141.721,1429.119,1141.763,1429.048,1141.81,1428.979Z" transform="translate(-1141.681 -1428.979)" fill="none" stroke="#66142e" stroke-miterlimit="10" stroke-width="0"/>
              </g>
            </g>
            <g id="Group_4882" data-name="Group 4882" transform="translate(0 16.379)">
              <path id="Path_3013" data-name="Path 3013" d="M1151.686,1418.809a3.661,3.661,0,0,1-.735-.075c-.031-.005-.074-.015-.117-.026l-35.391-8.327a3.825,3.825,0,0,1-2.961-3.739V1376.1a3.489,3.489,0,0,1,.588-1.943.412.412,0,0,1,.721.391,1.432,1.432,0,0,0-.03,1.248,2.031,2.031,0,0,0,1.418.933l.012,0,37.319,8.565a3.631,3.631,0,0,1,2.813,3.549v26.313a3.647,3.647,0,0,1-3.639,3.646Zm-38.38-42.219v30.052a3,3,0,0,0,2.326,2.937l35.4,8.33c.031.008.051.012.071.016a2.822,2.822,0,0,0,3.4-2.762V1388.85a2.81,2.81,0,0,0-2.176-2.746l-37.317-8.564-.014,0h0A3.1,3.1,0,0,1,1113.306,1376.591Z" transform="translate(-1112.482 -1373.979)" fill="#5e5e5e"/>
            </g>
            <g id="Group_4886" data-name="Group 4886" transform="translate(2.678 17.331)">
              <g id="Group_4883" data-name="Group 4883" transform="translate(0.629 0.069)">
                <path id="Path_3014" data-name="Path 3014" d="M1274.439,1422.837a3.165,3.165,0,0,0-2.439-3.08l-39.088-8.63h41.565a3.3,3.3,0,0,1,3.3,3.3v26.49a3.3,3.3,0,0,1-2.117,3.081,3.319,3.319,0,0,1-1.154.219h-.069Z" transform="translate(-1232.912 -1411.127)" fill="#f0de9f"/>
              </g>
              <g id="Group_4885" data-name="Group 4885">
                <g id="Group_4884" data-name="Group 4884">
                  <path id="Path_3015" data-name="Path 3015" d="M1252.189,1408.764a3.236,3.236,0,0,1,3.234,3.234v26.49a3.233,3.233,0,0,1-2.073,3.017,3.247,3.247,0,0,1-1.13.214v-21.313a3.234,3.234,0,0,0-2.492-3.147l-38.474-8.495h40.936m0-.137h-42.195l1.229.271,38.474,8.495a3.1,3.1,0,0,1,2.385,3.013v21.452h.139a3.367,3.367,0,0,0,3.156-2.273,3.346,3.346,0,0,0,.183-1.1V1412a3.374,3.374,0,0,0-3.371-3.371Z" transform="translate(-1209.994 -1408.627)" fill="#f0de9f"/>
                </g>
              </g>
            </g>
            <g id="Group_4887" data-name="Group 4887" transform="translate(43.931 18.684)" opacity="0.3">
              <path id="Path_3016" data-name="Path 3016" d="M2716.257,1459.9v26.49a3.233,3.233,0,0,1-2.073,3.017,3.247,3.247,0,0,1-1.13.214v-21.313a3.231,3.231,0,0,0-.972-2.311v-5.8l.732-.412c1.746-.049,3.09-.382,2.735-1.9A3.209,3.209,0,0,1,2716.257,1459.9Z" transform="translate(-2712.081 -1457.879)" fill="url(#linear-gradient)"/>
            </g>
            <g id="Group_4888" data-name="Group 4888" transform="translate(3.525 17.056)">
              <path id="Path_3017" data-name="Path 3017" d="M1282.209,1432.406a.412.412,0,0,1-.412-.412v-21.313a2.81,2.81,0,0,0-2.175-2.746l-38.468-8.493a.412.412,0,0,1,.089-.814h40.936a3.65,3.65,0,0,1,3.646,3.646v26.49a3.643,3.643,0,0,1-3.611,3.643Zm-37.189-32.955,34.786,7.68a3.633,3.633,0,0,1,2.816,3.55v20.867a2.821,2.821,0,0,0,2.38-2.785v-26.49a2.825,2.825,0,0,0-2.822-2.822Z" transform="translate(-1240.831 -1398.627)" fill="#66142e"/>
            </g>
            <g id="Group_4889" data-name="Group 4889" transform="translate(4.623 17.62)" opacity="0.3">
              <path id="Path_3018" data-name="Path 3018" d="M1280.808,1419.143h8.141l.335,1.664Z" transform="translate(-1280.808 -1419.143)" fill="#5e5e5e"/>
            </g>
            <g id="Group_4890" data-name="Group 4890" transform="translate(18.067 17.423)" opacity="0.3">
              <path id="Path_3019" data-name="Path 3019" d="M1770.331,1415.161h26.15c3.09.06,3.694-1,2.943-2.172-.965-1.241-3.347-1.141-6.135-.656Z" transform="translate(-1770.331 -1411.996)" fill="#66142e"/>
            </g>
            <g id="Group_4894" data-name="Group 4894" transform="translate(0.603 15.278)">
              <g id="Group_4891" data-name="Group 4891" transform="translate(0.069 0.069)">
                <path id="Path_3020" data-name="Path 3020" d="M1176.379,1382.018a7.143,7.143,0,0,1-1.584-.186l.029-.134a3.158,3.158,0,0,0,3.8-3.1v-26.313a3.164,3.164,0,0,0-2.441-3.08l-37.337-8.569a2.485,2.485,0,0,1-1.734-1.183,1.912,1.912,0,0,1,.017-1.654,3.155,3.155,0,0,1,2.634-1.417h43.523a3.307,3.307,0,0,1,3.3,3.3v26.49c.046,3.48-1.4,4.46-4.278,5.136l-.04-.131a3.164,3.164,0,0,0,2.029-2.953v-26.49a3.1,3.1,0,0,0-.114-.841l0-.009v0a3.171,3.171,0,0,0-3.048-2.312h-40.307l37.859,8.359a3.307,3.307,0,0,1,2.309,1.987,3.256,3.256,0,0,1,.237,1.227v26.185a5.541,5.541,0,0,1-1.289,4.266A4.731,4.731,0,0,1,1176.379,1382.018Z" transform="translate(-1136.929 -1336.381)" fill="#f0de9f"/>
              </g>
              <g id="Group_4893" data-name="Group 4893">
                <g id="Group_4892" data-name="Group 4892">
                  <path id="Path_3021" data-name="Path 3021" d="M1180.845,1334.018a3.234,3.234,0,0,1,3.234,3.234v26.49c.047,3.5-1.476,4.423-4.225,5.07a3.238,3.238,0,0,0,1.9-1.966,3.2,3.2,0,0,0,.176-1.051v-26.49a3.179,3.179,0,0,0-.116-.86v0a3.235,3.235,0,0,0-3.117-2.372h-40.936l38.474,8.495a3.236,3.236,0,0,1,2.492,3.147V1373.9c.232,3.6-1.88,5.62-4.782,5.62a7.077,7.077,0,0,1-1.569-.184,3.227,3.227,0,0,0,3.879-3.168v-26.313a3.232,3.232,0,0,0-2.494-3.147l-37.319-8.565-.012,0c-1.445-.336-2.262-1.377-1.675-2.745a3.085,3.085,0,0,1,2.571-1.376h43.523m0-.137h-43.523a3.221,3.221,0,0,0-2.685,1.437l-.007.01-.005.012a1.979,1.979,0,0,0-.015,1.712,2.555,2.555,0,0,0,1.779,1.219l0,0,.012,0h0l37.319,8.565a3.1,3.1,0,0,1,2.387,3.013v26.313a3.1,3.1,0,0,1-3.089,3.1,3.133,3.133,0,0,1-.625-.064l-.058.268a7.227,7.227,0,0,0,1.6.187,4.8,4.8,0,0,0,3.611-1.445,5.609,5.609,0,0,0,1.308-4.317v-26.181a3.326,3.326,0,0,0-.242-1.253,3.376,3.376,0,0,0-2.356-2.028l-37.246-8.223h39.677a3.1,3.1,0,0,1,2.98,2.253h0l.005.021a3.041,3.041,0,0,1,.112.823v26.49a3.1,3.1,0,0,1-1.985,2.889l.081.262a6.392,6.392,0,0,0,3.229-1.505,4.976,4.976,0,0,0,1.1-3.7v-26.488a3.375,3.375,0,0,0-3.371-3.371Z" transform="translate(-1134.423 -1333.881)" fill="#f0de9f"/>
                </g>
              </g>
            </g>
            <g id="Group_4897" data-name="Group 4897" transform="translate(38.552 57.564)" opacity="0.55">
              <g id="Group_4895" data-name="Group 4895">
                <path id="Path_3022" data-name="Path 3022" d="M2520.11,2873.579v.858a3.2,3.2,0,0,1-1.011,2.347,6.341,6.341,0,0,1-2.869-.037A3.233,3.233,0,0,0,2520.11,2873.579Z" transform="translate(-2516.231 -2873.579)" fill="#fff"/>
              </g>
              <g id="Group_4896" data-name="Group 4896">
                <path id="Path_3023" data-name="Path 3023" d="M2520.11,2873.579v.858a3.2,3.2,0,0,1-1.011,2.347,6.341,6.341,0,0,1-2.869-.037A3.233,3.233,0,0,0,2520.11,2873.579Z" transform="translate(-2516.231 -2873.579)" fill="none" stroke="#66142e" stroke-miterlimit="10" stroke-width="0"/>
              </g>
            </g>
            <g id="Group_4900" data-name="Group 4900" transform="translate(44.903 55.295)" opacity="0.55">
              <g id="Group_4898" data-name="Group 4898">
                <path id="Path_3024" data-name="Path 3024" d="M2747.481,2790.979a7.774,7.774,0,0,1,.006.961c0-.034,0-.069-.006-.1Z" transform="translate(-2747.481 -2790.979)" fill="#fff"/>
              </g>
              <g id="Group_4899" data-name="Group 4899">
                <path id="Path_3025" data-name="Path 3025" d="M2747.481,2790.979a7.774,7.774,0,0,1,.006.961c0-.034,0-.069-.006-.1Z" transform="translate(-2747.481 -2790.979)" fill="none" stroke="#66142e" stroke-miterlimit="10" stroke-width="0"/>
              </g>
            </g>
            <g id="Group_4903" data-name="Group 4903" transform="translate(46.033 47.192)" opacity="0.55">
              <g id="Group_4901" data-name="Group 4901">
                <path id="Path_3026" data-name="Path 3026" d="M2790.529,2496.979a3.212,3.212,0,0,0,.176-1.051v.858a3.217,3.217,0,0,1-.471,1.678,11.318,11.318,0,0,1-1.6.48A3.236,3.236,0,0,0,2790.529,2496.979Z" transform="translate(-2788.631 -2495.929)" fill="#fff"/>
              </g>
              <g id="Group_4902" data-name="Group 4902">
                <path id="Path_3027" data-name="Path 3027" d="M2790.529,2496.979a3.212,3.212,0,0,0,.176-1.051v.858a3.217,3.217,0,0,1-.471,1.678,11.318,11.318,0,0,1-1.6.48A3.236,3.236,0,0,0,2790.529,2496.979Z" transform="translate(-2788.631 -2495.929)" fill="none" stroke="#66142e" stroke-miterlimit="10" stroke-width="0"/>
              </g>
            </g>
            <g id="Group_4904" data-name="Group 4904" transform="translate(0.739 15.415)" opacity="0.55">
              <path id="Path_3028" data-name="Path 3028" d="M1188.92,1342.113v.858a3.234,3.234,0,0,0-3.234-3.234h-43.523a3.085,3.085,0,0,0-2.571,1.376,2.5,2.5,0,0,0-.139.42,1.951,1.951,0,0,1,.139-1.278,3.085,3.085,0,0,1,2.571-1.376h43.523A3.234,3.234,0,0,1,1188.92,1342.113Z" transform="translate(-1139.401 -1338.879)" fill="#fff"/>
            </g>
            <g id="Group_4905" data-name="Group 4905" transform="translate(38.552 27.46)" opacity="0.3">
              <path id="Path_3029" data-name="Path 3029" d="M2522.582,1805.283c.272,4.221-2.681,6.273-6.351,5.436a3.233,3.233,0,0,0,3.879-3.168v-26.313a3.223,3.223,0,0,0-.342-1.447c-.3-2.075,1.25-2.95,2.582-1.9a3.2,3.2,0,0,1,.232,1.2Z" transform="translate(-2516.231 -1777.447)" fill="#f0de9f"/>
            </g>
            <g id="Group_4906" data-name="Group 4906" transform="translate(0.327 15.004)">
              <path id="Path_3030" data-name="Path 3030" d="M1164.2,1370.207a7.539,7.539,0,0,1-1.671-.2.412.412,0,0,1,.174-.805,2.822,2.822,0,0,0,3.385-2.765v-26.313a2.81,2.81,0,0,0-2.176-2.746l-37.317-8.564-.014,0h0a2.823,2.823,0,0,1-1.968-1.364,2.243,2.243,0,0,1,.008-1.944.41.41,0,0,1,.036-.066,3.5,3.5,0,0,1,2.913-1.559H1171.1a3.65,3.65,0,0,1,3.646,3.646v26.49c.049,3.669-1.628,4.785-4.543,5.471a.412.412,0,0,1-.242-.786,2.822,2.822,0,0,0,1.809-2.632v-26.49a2.825,2.825,0,0,0-2.822-2.822h-37.159l9,1.987,25.787,5.693a3.632,3.632,0,0,1,2.816,3.55v26.172a5.712,5.712,0,0,1-1.753,4.867A5.188,5.188,0,0,1,1164.2,1370.207Zm-37.421-42.192,37.319,8.565a3.631,3.631,0,0,1,2.813,3.549v26.313a3.63,3.63,0,0,1-1.226,2.726,3.976,3.976,0,0,0,1.411-.768,4.859,4.859,0,0,0,1.464-4.2c0-.009,0-.018,0-.026v-26.185a2.81,2.81,0,0,0-2.175-2.746l-38.468-8.493a.412.412,0,0,1,.089-.814h40.936a3.65,3.65,0,0,1,3.646,3.646v26.49a3.618,3.618,0,0,1-.2,1.185,3.659,3.659,0,0,1-.358.751c1.3-.668,1.914-1.755,1.884-3.983v-26.5a2.825,2.825,0,0,0-2.822-2.822h-43.523a2.673,2.673,0,0,0-2.207,1.161,1.415,1.415,0,0,0-.015,1.213,2.029,2.029,0,0,0,1.418.933l.012,0Z" transform="translate(-1124.4 -1323.881)" fill="#5e5e5e"/>
            </g>
            <g id="Group_4907" data-name="Group 4907" transform="translate(17.655 18.004)">
              <path id="Path_3031" data-name="Path 3031" d="M1782.138,1436.122l-.254,0h-26.141a.412.412,0,1,1,0-.824h26.15c2.129.04,2.64-.455,2.761-.67a.9.9,0,0,0-.165-.868.412.412,0,0,1,.694-.444,1.589,1.589,0,0,1,.19,1.715C1784.965,1435.754,1783.878,1436.122,1782.138,1436.122Z" transform="translate(-1755.331 -1433.123)" fill="#5e5e5e"/>
            </g>
            <g id="Group_4918" data-name="Group 4918" transform="translate(9.919 0.952)">
              <g id="Group_4910" data-name="Group 4910" transform="translate(0.343 0.344)">
                <g id="Group_4908" data-name="Group 4908" transform="translate(0.069 0.069)">
                  <path id="Path_3032" data-name="Path 3032" d="M1513.5,846.462l-14.74.1-.023-.006-3.316-.732-1.8-.4-2.209-.487-.341-1.6-.437-2.053-1.988-9.338a.356.356,0,0,1,.273-.423l10.444-2.223,1.587-.338,4.413-.939,2.034-.433h0l1.641-.35a.356.356,0,0,1,.423.273l.128.6.206.968,2.6,12.2.437,2.053Z" transform="translate(-1488.64 -827.238)" fill="url(#linear-gradient-2)"/>
                </g>
                <g id="Group_4909" data-name="Group 4909">
                  <path id="Path_3033" data-name="Path 3033" d="M1496.319,844.208l-.031-.007-7.364-1.626-.786-3.7-1.988-9.338a.425.425,0,0,1,.326-.5l18.493-3.934,1.628-.349a.426.426,0,0,1,.5.326l4.051,19.026h-.084Zm-7.279-1.748,7.295,1.611,14.647-.1-4.016-18.861a.287.287,0,0,0-.341-.22l-20.121,4.283a.288.288,0,0,0-.22.341Z" transform="translate(-1486.139 -824.743)" fill="#66142e"/>
                </g>
              </g>
              <g id="Group_4911" data-name="Group 4911" transform="translate(0.412 0.412)" opacity="0.55">
                <path id="Path_3034" data-name="Path 3034" d="M1509.54,827.865l-1.229.262h0l-6.446,1.372-12.032,2.561a.357.357,0,0,0-.275.423l1.99,9.338.437,2.053.265,1.255-.835-.184-.341-1.6-.437-2.053-1.988-9.338a.356.356,0,0,1,.273-.423l12.032-2.561,6.447-1.372h0l1.641-.35a.356.356,0,0,1,.423.273Z" transform="translate(-1488.64 -827.238)" fill="#fff"/>
              </g>
              <g id="Group_4914" data-name="Group 4914" transform="translate(3.099 3.099)">
                <g id="Group_4912" data-name="Group 4912" transform="translate(0.081 0.081)">
                  <path id="Path_3035" data-name="Path 3035" d="M1609.415,944.485l-12.657.1-5.112-1.129-.445-2.09-.437-2.053-1.333-6.265a1.877,1.877,0,0,0,1.445-2.227l7.57-1.611,5.546-1.181a1.877,1.877,0,0,0,2.227,1.445l2.094,9.839.437,2.053Z" transform="translate(-1589.431 -928.029)" fill="url(#linear-gradient-2)"/>
                </g>
                <g id="Group_4913" data-name="Group 4913">
                  <path id="Path_3036" data-name="Path 3036" d="M1593.865,941.767l-.008,0-5.156-1.138-.891-4.186-1.348-6.332.067-.014a1.811,1.811,0,0,0,1.392-2.146l-.014-.067.067-.014,13.184-2.806.014.067a1.811,1.811,0,0,0,2.146,1.392l.067-.014.014.067,3.213,15.094Zm-5.047-1.255,5.062,1.118,12.564-.1-3.164-14.864a1.948,1.948,0,0,1-2.226-1.444l-12.985,2.764a1.949,1.949,0,0,1-1.444,2.226Z" transform="translate(-1586.464 -925.062)" fill="#5e5e5e"/>
                </g>
              </g>
              <g id="Group_4915" data-name="Group 4915" transform="translate(7.191 1.203)" opacity="0.3">
                <path id="Path_3037" data-name="Path 3037" d="M1753.56,874.462l-14.74.1-.023-.005-3.316-.732,3.947-16.523,1.587-.338,4.413-.939,4.433,1.059,2.6,12.2.437,2.053Z" transform="translate(-1735.481 -856.029)" fill="#f0de9f"/>
              </g>
              <g id="Group_4916" data-name="Group 4916">
                <path id="Path_3038" data-name="Path 3038" d="M1498.908,832.282a.412.412,0,0,1-.4-.326l-4.021-18.888-1.587.338-.015,0-18.41,3.918,2.849,13.381a.412.412,0,1,1-.806.172l-2.86-13.435a.769.769,0,0,1,.59-.912l18.479-3.933.015,0,1.627-.347a.768.768,0,0,1,.912.59l4.033,18.943a.412.412,0,0,1-.4.5Z" transform="translate(-1473.638 -812.233)" fill="#5e5e5e"/>
              </g>
              <g id="Group_4917" data-name="Group 4917" transform="translate(2.837 2.837)">
                <path id="Path_3039" data-name="Path 3039" d="M1597.257,932.68a.344.344,0,0,1-.335-.272l-3.129-14.7a2.226,2.226,0,0,1-2.2-1.424l-12.5,2.66a2.226,2.226,0,0,1-1.424,2.2l2.244,10.539a.343.343,0,0,1-.672.143l-2.31-10.85a.343.343,0,0,1,.264-.407,1.536,1.536,0,0,0,1.18-1.82.343.343,0,0,1,.264-.407l13.117-2.792a.343.343,0,0,1,.407.264,1.536,1.536,0,0,0,1.82,1.18.343.343,0,0,1,.407.264l3.2,15.012a.344.344,0,0,1-.264.407A.351.351,0,0,1,1597.257,932.68Z" transform="translate(-1576.93 -915.537)" fill="#5e5e5e"/>
              </g>
            </g>
            <g id="Group_4919" data-name="Group 4919" transform="translate(18.465 0.412)">
              <path id="Path_3040" data-name="Path 3040" d="M1810.287,797.8l-2.14,8.955-1.434,6h-21.883l4.754-19.9a.357.357,0,0,1,.43-.264l20.009,4.78A.357.357,0,0,1,1810.287,797.8Z" transform="translate(-1784.831 -792.576)" fill="url(#linear-gradient-2)"/>
            </g>
            <g id="Group_4920" data-name="Group 4920" transform="translate(18.465 0.412)" opacity="0.55">
              <path id="Path_3041" data-name="Path 3041" d="M1810.287,797.8l-.1.419-19.578-4.677a.357.357,0,0,0-.43.264l-4.526,18.951h-.823l4.754-19.9a.357.357,0,0,1,.43-.264l20.009,4.78A.357.357,0,0,1,1810.287,797.8Z" transform="translate(-1784.831 -792.576)" fill="#fff"/>
            </g>
            <g id="Group_4921" data-name="Group 4921" transform="translate(18.053)">
              <path id="Path_3042" data-name="Path 3042" d="M1792.125,798.576h-21.883a.412.412,0,0,1-.4-.508l4.754-19.9a.769.769,0,0,1,.925-.569l20.01,4.78a.77.77,0,0,1,.569.925h0l-3.573,14.957A.412.412,0,0,1,1792.125,798.576Zm-21.361-.824H1791.8l3.485-14.587-19.9-4.754Zm24.934-14.545h0Z" transform="translate(-1769.83 -777.576)" fill="#5e5e5e"/>
            </g>
            <g id="Group_4922" data-name="Group 4922" transform="translate(46.033 17.383)" opacity="0.3">
              <path id="Path_3043" data-name="Path 3043" d="M2792.857,1412.155v26.137c.047,3.5-1.476,4.423-4.225,5.07a3.232,3.232,0,0,0,2.073-3.017v-26.49a3.169,3.169,0,0,0-.117-.86v0C2790.7,1410.748,2792.2,1409.222,2792.857,1412.155Z" transform="translate(-2788.631 -1410.536)" fill="url(#linear-gradient)"/>
            </g>
            <g id="Group_4923" data-name="Group 4923" transform="translate(20.583 3.257)">
              <path id="Path_3044" data-name="Path 3044" d="M1882.434,901.556l-2.856,11.953h-17.647l3.808-15.941a1.877,1.877,0,0,0,2.262-1.39l13.044,3.116A1.878,1.878,0,0,0,1882.434,901.556Z" transform="translate(-1861.931 -896.179)" fill="url(#linear-gradient-2)"/>
            </g>
            <g id="Group_4924" data-name="Group 4924" transform="translate(25.302 14.158)">
              <path id="Path_3045" data-name="Path 3045" d="M2039.537,1293.186a4.848,4.848,0,0,0-5.493,6.343h9.168a4.848,4.848,0,0,0-3.674-6.343Z" transform="translate(-2033.778 -1293.099)" fill="url(#linear-gradient-2)"/>
            </g>
            <g id="Group_4925" data-name="Group 4925" transform="translate(26.865 16.865)">
              <path id="Path_3046" data-name="Path 3046" d="M2092.678,1395.346a1.492,1.492,0,0,1-1.213-1.405l-.766-.146.187-.976.646.123a3.253,3.253,0,0,1,.556-1.27l.891.408a2.951,2.951,0,0,0-.551,1.195c-.1.52.064.835.39.9.311.059.535-.144.865-.7.448-.776,1.012-1.23,1.74-1.091a1.509,1.509,0,0,1,1.194,1.536l.768.147-.186.976-.715-.136a2.93,2.93,0,0,1-.413.886l-.865-.426a2.418,2.418,0,0,0,.438-1c.094-.49-.083-.77-.344-.82-.319-.061-.513.195-.882.793C2093.922,1395.153,2093.382,1395.48,2092.678,1395.346Z" transform="translate(-2090.699 -1391.672)" fill="url(#linear-gradient-8)"/>
            </g>
            <g id="Group_4926" data-name="Group 4926" transform="translate(30.66 7.736)">
              <circle id="Ellipse_71" data-name="Ellipse 71" cx="1.381" cy="1.381" r="1.381" fill="url(#linear-gradient-8)"/>
            </g>
            <g id="Group_4927" data-name="Group 4927" transform="translate(31.996 11.861)" opacity="0.3">
              <path id="Path_3047" data-name="Path 3047" d="M2288.552,1212.114l-1.434,6h-8.978a6.023,6.023,0,0,1,10.412-6Z" transform="translate(-2277.531 -1209.45)" fill="#66142e"/>
            </g>
            <g id="Group_4928" data-name="Group 4928" transform="translate(20.239 2.914)">
              <path id="Path_3048" data-name="Path 3048" d="M1867.42,901.7h-17.647a.343.343,0,0,1-.334-.423l3.808-15.941a.343.343,0,0,1,.413-.254,1.536,1.536,0,0,0,1.848-1.135.344.344,0,0,1,.414-.254l13.044,3.116a.343.343,0,0,1,.254.414,1.535,1.535,0,0,0,1.135,1.848.343.343,0,0,1,.254.414l-2.856,11.954A.343.343,0,0,1,1867.42,901.7Zm-17.212-.687h16.941l2.72-11.382a2.226,2.226,0,0,1-1.37-2.23l-12.427-2.968a2.226,2.226,0,0,1-2.23,1.37Z" transform="translate(-1849.43 -883.679)" fill="#5e5e5e"/>
            </g>
            <g id="Group_4929" data-name="Group 4929" transform="translate(2.863 33.346)" opacity="0.3">
              <path id="Path_3049" data-name="Path 3049" d="M1255.2,1991.779V2016a2.135,2.135,0,0,1-2.127,2.137,2.09,2.09,0,0,1-.433-.046l-.033-.005-35.434-8.338a2.253,2.253,0,0,1-.443-.154C1231.914,2010.105,1247.062,2003.926,1255.2,1991.779Z" transform="translate(-1216.731 -1991.779)" fill="url(#linear-gradient)"/>
            </g>
          </g>
          <g id="Group_4945" data-name="Group 4945" transform="translate(41.192 10.462)">
            <g id="Group_4933" data-name="Group 4933" transform="translate(0.412 0.411)">
              <g id="Group_4931" data-name="Group 4931">
                <path id="Path_3050" data-name="Path 3050" d="M2363.02,1181.346a6.464,6.464,0,0,1-11.825,2,6.461,6.461,0,0,1-.836-4.623c.01-.049.019-.1.029-.144a6.466,6.466,0,0,1,11.641-2.285,6.645,6.645,0,0,1,.523.91,6.453,6.453,0,0,1,.468,4.143Z" transform="translate(-2350.237 -1173.495)" fill="#f0de9f"/>
              </g>
              <g id="Group_4932" data-name="Group 4932">
                <path id="Path_3051" data-name="Path 3051" d="M2363.02,1181.346a6.464,6.464,0,0,1-11.825,2,6.461,6.461,0,0,1-.836-4.623c.01-.049.019-.1.029-.144a6.466,6.466,0,0,1,11.641-2.285,6.645,6.645,0,0,1,.523.91,6.453,6.453,0,0,1,.468,4.143Z" transform="translate(-2350.237 -1173.495)" fill="none" stroke="#66142e" stroke-miterlimit="10" stroke-width="0"/>
              </g>
            </g>
            <g id="Group_4934" data-name="Group 4934" transform="translate(0.477 0.411)" opacity="0.55">
              <path id="Path_3052" data-name="Path 3052" d="M2365.33,1181.346c-.035.158-.075.314-.12.466a6.466,6.466,0,0,0-12.6-2.76c.023-.157.051-.316.085-.474a6.465,6.465,0,1,1,12.631,2.767Z" transform="translate(-2352.613 -1173.495)" fill="#fff"/>
            </g>
            <g id="Group_4935" data-name="Group 4935" transform="translate(0.412 4.62)">
              <path id="Path_3053" data-name="Path 3053" d="M2363.018,1330.365a6.465,6.465,0,1,1-12.374-3.643,6.466,6.466,0,0,0,12.506,2.74A6.439,6.439,0,0,1,2363.018,1330.365Z" transform="translate(-2350.236 -1326.722)" fill="url(#linear-gradient)"/>
            </g>
            <g id="Group_4938" data-name="Group 4938" transform="translate(2.37 2.37)">
              <g id="Group_4936" data-name="Group 4936">
                <path id="Path_3054" data-name="Path 3054" d="M2425.072,1253.721a4.508,4.508,0,1,1,5.369-3.439A4.513,4.513,0,0,1,2425.072,1253.721Z" transform="translate(-2421.528 -1244.808)" fill="#f0de9f"/>
              </g>
              <g id="Group_4937" data-name="Group 4937">
                <path id="Path_3055" data-name="Path 3055" d="M2425.072,1253.721a4.508,4.508,0,1,1,5.369-3.439A4.513,4.513,0,0,1,2425.072,1253.721Z" transform="translate(-2421.528 -1244.808)" fill="none" stroke="#66142e" stroke-miterlimit="10" stroke-width="0"/>
              </g>
            </g>
            <g id="Group_4939" data-name="Group 4939" transform="translate(2.412 2.37)" opacity="0.55">
              <path id="Path_3056" data-name="Path 3056" d="M2431.932,1250.271c-.026.119-.057.235-.091.349a4.508,4.508,0,0,0-8.779-1.923c.016-.118.037-.236.063-.355a4.508,4.508,0,1,1,8.807,1.93Z" transform="translate(-2423.062 -1244.797)" fill="#fff"/>
            </g>
            <g id="Group_4940" data-name="Group 4940" transform="translate(4.844 3.825)">
              <path id="Path_3057" data-name="Path 3057" d="M2515.024,1302.169a1.374,1.374,0,0,1-1.323,1.081l-.154.7-.894-.2.13-.592a2.99,2.99,0,0,1-1.155-.543l.4-.809a2.718,2.718,0,0,0,1.086.536c.476.1.77-.038.835-.337s-.119-.5-.626-.813c-.7-.431-1.107-.962-.961-1.628a1.389,1.389,0,0,1,1.443-1.061l.154-.7.894.2-.143.654a2.687,2.687,0,0,1,.8.4l-.414.786a2.222,2.222,0,0,0-.91-.427c-.449-.1-.711.057-.763.3-.064.292.167.477.708.831C2514.877,1301.019,2515.165,1301.524,2515.024,1302.169Z" transform="translate(-2511.628 -1297.805)" fill="#5e5e5e"/>
            </g>
            <g id="Group_4941" data-name="Group 4941" transform="translate(0.412 0.889)" opacity="0.27">
              <path id="Path_3058" data-name="Path 3058" d="M2362.029,1193.219l-11.309,6.118a6.42,6.42,0,0,1-.361-3.688l8.782-4.75A6.44,6.44,0,0,1,2362.029,1193.219Z" transform="translate(-2350.237 -1190.898)" fill="#fce5e5"/>
            </g>
            <g id="Group_4942" data-name="Group 4942" transform="translate(1.369 4.12)" opacity="0.27">
              <path id="Path_3059" data-name="Path 3059" d="M2396.931,1309.929l-10.635,6.118a4.6,4.6,0,0,1-1.2-1.368l11.357-6.143A2.976,2.976,0,0,1,2396.931,1309.929Z" transform="translate(-2385.101 -1308.536)" fill="#fce5e5"/>
            </g>
            <g id="Group_4943" data-name="Group 4943" transform="translate(2.026 2.026)">
              <path id="Path_3060" data-name="Path 3060" d="M2413.854,1241.989a4.85,4.85,0,1,1,4.739-3.814A4.853,4.853,0,0,1,2413.854,1241.989Zm-.006-9.018a4.17,4.17,0,1,0,.9.1A4.142,4.142,0,0,0,2413.848,1232.97Z" transform="translate(-2409 -1232.284)" fill="#5e5e5e"/>
            </g>
            <g id="Group_4944" data-name="Group 4944">
              <path id="Path_3061" data-name="Path 3061" d="M2342.12,1172.27a6.882,6.882,0,0,1-1.473-.16,6.807,6.807,0,0,1-2.874-1.386,6.885,6.885,0,0,1-1.515-1.732,6.876,6.876,0,0,1-.889-4.918c.011-.056.021-.1.031-.153a6.877,6.877,0,0,1,12.382-2.431,7.081,7.081,0,0,1,.556.967,6.863,6.863,0,0,1,.5,4.407A6.889,6.889,0,0,1,2342.12,1172.27Zm0-12.933a6.065,6.065,0,0,0-5.913,4.76c-.009.043-.018.086-.026.129a6.018,6.018,0,0,0,.337,3.459,5.949,5.949,0,0,0,.444.875,6.059,6.059,0,0,0,1.334,1.526,5.99,5.99,0,0,0,2.529,1.219,6.05,6.05,0,0,0,7.208-4.618h0a6.037,6.037,0,0,0-.437-3.878,6.246,6.246,0,0,0-.49-.853,6.061,6.061,0,0,0-4.986-2.619Z" transform="translate(-2335.24 -1158.513)" fill="#5e5e5e"/>
            </g>
          </g>
          <g id="Group_4952" data-name="Group 4952" transform="translate(61.544 33.706)">
            <g id="Group_4948" data-name="Group 4948" transform="translate(0.343 0.343)">
              <g id="Group_4946" data-name="Group 4946" transform="translate(0.069 0.068)">
                <path id="Path_3062" data-name="Path 3062" d="M3092.741,2028.965l-1.2-1.008a.7.7,0,0,1-.11-.953c.007-.01.016-.021.024-.03l5.784-6.885a.7.7,0,0,1,.983-.085l1.2,1.008a.7.7,0,0,1,.085.983l-5.784,6.885A.7.7,0,0,1,3092.741,2028.965Z" transform="translate(-3091.293 -2019.84)" fill="#f0de9f"/>
              </g>
              <g id="Group_4947" data-name="Group 4947">
                <path id="Path_3063" data-name="Path 3063" d="M3090.761,2026.778a.763.763,0,0,1-.492-.179l-1.2-1.008a.767.767,0,0,1-.121-1.046l.027-.034,5.784-6.884a.767.767,0,0,1,1.08-.094l1.2,1.008a.767.767,0,0,1,.094,1.079l-5.784,6.885A.764.764,0,0,1,3090.761,2026.778Zm-.4-.284a.63.63,0,0,0,.886-.077l5.784-6.885a.63.63,0,0,0-.077-.886l-1.2-1.008a.63.63,0,0,0-.886.077l-5.784,6.885-.022.027a.63.63,0,0,0,.1.859Z" transform="translate(-3088.795 -2017.353)" fill="#f0de9f"/>
              </g>
            </g>
            <g id="Group_4949" data-name="Group 4949" transform="translate(0.812 4.285)">
              <rect id="Rectangle_3026" data-name="Rectangle 3026" width="3.889" height="2.962" transform="matrix(0.643, -0.766, 0.766, 0.643, 0, 2.978)" fill="#f0de9f"/>
            </g>
            <g id="Group_4950" data-name="Group 4950" transform="translate(4.842 1.019)" opacity="0.55">
              <rect id="Rectangle_3027" data-name="Rectangle 3027" width="1.889" height="2.962" transform="matrix(0.643, -0.766, 0.766, 0.643, 0, 1.447)" fill="#fce5e5"/>
            </g>
            <g id="Group_4951" data-name="Group 4951">
              <path id="Path_3064" data-name="Path 3064" d="M3078.612,2014.979a1.1,1.1,0,0,1-.712-.26l-1.2-1.008a1.109,1.109,0,0,1-.136-1.563l5.784-6.884a1.111,1.111,0,0,1,1.563-.136l1.2,1.008a1.109,1.109,0,0,1,.136,1.563l-5.784,6.884a1.1,1.1,0,0,1-.753.392C3078.677,2014.978,3078.645,2014.979,3078.612,2014.979Zm4.586-9.287a.285.285,0,0,0-.219.1l-5.784,6.884h0a.286.286,0,0,0,.035.4l1.2,1.008a.288.288,0,0,0,.208.066.284.284,0,0,0,.194-.1l5.784-6.884a.285.285,0,0,0-.035-.4l-1.2-1.008A.284.284,0,0,0,3083.2,2005.692Zm-6.318,6.721h0Z" transform="translate(-3076.305 -2004.868)" fill="#5e5e5e"/>
            </g>
          </g>
          <g id="Group_4971" data-name="Group 4971" transform="translate(0 28.439)">
            <g id="Group_4955" data-name="Group 4955" transform="translate(0.41 1.471)">
              <g id="Group_4953" data-name="Group 4953" transform="translate(0.068 0.071)">
                <path id="Path_3065" data-name="Path 3065" d="M861.73,1872.612c-2.278-2.478-4.931-3.819-6.242-3.237h0a3.611,3.611,0,0,0-2.479,2.434c-.768,1.33.323,4.041,2.653,6.575,1.784,1.94,3.8,3.183,5.217,3.353h0s2.189.6,3.517-2.571C865.16,1877.939,864.047,1875.132,861.73,1872.612Z" transform="translate(-852.766 -1869.24)" fill="#f0de9f"/>
              </g>
              <g id="Group_4954" data-name="Group 4954">
                <path id="Path_3066" data-name="Path 3066" d="M858.9,1879.323a1.872,1.872,0,0,1-.438-.044c-1.484-.177-3.5-1.469-5.249-3.373-2.349-2.555-3.444-5.287-2.666-6.649a3.716,3.716,0,0,1,2.52-2.472c1.371-.6,4.025.766,6.315,3.256h0c2.313,2.516,3.463,5.369,2.674,6.636C861.082,1879.006,859.622,1879.323,858.9,1879.323Zm-5.1-12.54a1.666,1.666,0,0,0-.681.13l-.013,0a3.572,3.572,0,0,0-2.428,2.388l-.006.013c-.756,1.309.332,3.979,2.644,6.494,1.7,1.852,3.734,3.159,5.174,3.331.032.008,2.157.55,3.445-2.53.763-1.226-.38-4.008-2.653-6.48C857.4,1868.09,855.21,1866.784,853.8,1866.784Z" transform="translate(-850.298 -1866.645)" fill="#66142e"/>
              </g>
            </g>
            <g id="Group_4956" data-name="Group 4956" transform="translate(4.322 9.636)">
              <path id="Path_3067" data-name="Path 3067" d="M994.627,2163.974l-1.88,2.113,3.412,2.417a15.382,15.382,0,0,0,2.041-1.939S994.528,2164.884,994.627,2163.974Z" transform="translate(-992.747 -2163.974)" fill="#f0de9f"/>
            </g>
            <g id="Group_4957" data-name="Group 4957" transform="translate(1.13 4.734)" opacity="0.55">
              <path id="Path_3068" data-name="Path 3068" d="M878.326,1985.462l-1.811,2.787,1.411,2.248,1.711-2.15Z" transform="translate(-876.515 -1985.462)" fill="#f0de9f"/>
            </g>
            <g id="Group_4958" data-name="Group 4958" transform="translate(0.477 2.225)" opacity="0.55">
              <path id="Path_3069" data-name="Path 3069" d="M854.853,1894.99a2.276,2.276,0,0,0-1.255,1.908,3.422,3.422,0,0,0,.354,2.736s-1.127-2.306-1.2-2.5a19.552,19.552,0,0,1,.762-2.607l.8-.412Z" transform="translate(-852.745 -1894.119)" fill="#fff"/>
            </g>
            <g id="Group_4959" data-name="Group 4959" transform="translate(2.575 1.691)" opacity="0.55">
              <path id="Path_3070" data-name="Path 3070" d="M932.912,1875.888a7.612,7.612,0,0,0-2.255-.494.975.975,0,0,0-.995,1.008,9.45,9.45,0,0,0,1.306,3.952l-1.813-3.085s-.188-2.066.349-2.57A3.807,3.807,0,0,1,932.912,1875.888Z" transform="translate(-929.123 -1874.66)" fill="#fff"/>
            </g>
            <g id="Group_4962" data-name="Group 4962" transform="translate(3.315 2.588)">
              <g id="Group_4960" data-name="Group 4960" transform="translate(0 0)">
                <ellipse id="Ellipse_72" data-name="Ellipse 72" cx="1.443" cy="4.127" rx="1.443" ry="4.127" transform="matrix(0.735, -0.679, 0.679, 0.735, 0, 1.958)" fill="#f0de9f"/>
              </g>
              <g id="Group_4961" data-name="Group 4961" transform="translate(0.797 0.756)">
                <path id="Path_3071" data-name="Path 3071" d="M990.481,1941.352c-.816,0-2.177-.853-3.449-2.229-1.6-1.728-2.359-3.532-1.737-4.108s2.361.328,3.957,2.057,2.36,3.533,1.737,4.108A.725.725,0,0,1,990.481,1941.352Zm-4.68-6.373a.59.59,0,0,0-.413.137c-.547.506.252,2.3,1.745,3.914s3.216,2.554,3.763,2.049-.252-2.3-1.745-3.914C987.933,1935.846,986.562,1934.979,985.8,1934.979Z" transform="translate(-985.079 -1934.842)" fill="#66142e"/>
              </g>
            </g>
            <g id="Group_4963" data-name="Group 4963" transform="translate(3.966 3.198)">
              <path id="Path_3072" data-name="Path 3072" d="M985.336,1936.342c-.947,0-2.415-1.044-3.555-2.278-1.427-1.545-2.518-3.58-1.729-4.309s2.732.52,4.159,2.065,2.518,3.58,1.729,4.309A.859.859,0,0,1,985.336,1936.342Zm-4.681-6.377a.453.453,0,0,0-.316.1c-.428.4.187,2.017,1.753,3.712,1.521,1.646,3.134,2.435,3.562,2.041s-.187-2.017-1.753-3.712A6.039,6.039,0,0,0,980.655,1929.965Z" transform="translate(-979.787 -1929.541)" fill="#5e5e5e"/>
            </g>
            <g id="Group_4964" data-name="Group 4964" transform="translate(5.567 4.734)">
              <path id="Path_3073" data-name="Path 3073" d="M1040.651,1987.035a.945.945,0,0,1,.234,1.037l.342.365-.34.36-.293-.317a1.35,1.35,0,0,1-.632.35l-.336-.553a1.24,1.24,0,0,0,.61-.3.347.347,0,0,0,.048-.528c-.135-.144-.3-.148-.612-.048a1.036,1.036,0,0,1-1.176-.235.818.818,0,0,1-.1-1.067l-.318-.343.38-.28.291.311a1.225,1.225,0,0,1,.44-.164l.283.468a.994.994,0,0,0-.485.208c-.187.151-.185.327-.075.447.136.147.3.121.649.027A.987.987,0,0,1,1040.651,1987.035Z" transform="translate(-1038.073 -1985.475)" fill="#5e5e5e"/>
            </g>
            <g id="Group_4968" data-name="Group 4968" transform="translate(0.802 0)">
              <g id="Group_4967" data-name="Group 4967" clip-path="url(#clip-path)">
                <g id="Group_4965" data-name="Group 4965" transform="translate(0.424 3.901)" opacity="0.27">
                  <path id="Path_3074" data-name="Path 3074" d="M891.054,1958.976l-11.021-1.023a5.526,5.526,0,0,1,1.5-2.814l8.559.8A5.546,5.546,0,0,1,891.054,1958.976Z" transform="translate(-880.033 -1955.139)" fill="#fce5e5"/>
                </g>
                <g id="Group_4966" data-name="Group 4966" transform="translate(0.311 7.611)" opacity="0.27">
                  <path id="Path_3075" data-name="Path 3075" d="M886.669,2092.477l-10.539-.7a3.953,3.953,0,0,1-.2-1.551L887,2091.254A2.563,2.563,0,0,1,886.669,2092.477Z" transform="translate(-875.922 -2090.225)" fill="#fce5e5"/>
                </g>
              </g>
            </g>
            <g id="Group_4969" data-name="Group 4969" transform="translate(2.08 1.206)">
              <path id="Path_3076" data-name="Path 3076" d="M919.883,1868.213a4.636,4.636,0,0,1-1.882-.484,12.943,12.943,0,0,1-3.908-3c-2.664-2.9-3.734-6.1-2.437-7.295s4.4.142,7.065,3.039a12.938,12.938,0,0,1,2.661,4.146c.514,1.425.434,2.543-.225,3.149A1.822,1.822,0,0,1,919.883,1868.213Zm-6.964-10.528a1.149,1.149,0,0,0-.8.255c-.855.786-.048,3.576,2.477,6.323a12.249,12.249,0,0,0,3.689,2.84c1.092.5,1.969.559,2.4.159s.451-1.279.043-2.409a12.249,12.249,0,0,0-2.521-3.913h0C916.237,1858.788,914.145,1857.685,912.92,1857.685Z" transform="translate(-911.105 -1856.998)" fill="#5e5e5e"/>
            </g>
            <g id="Group_4970" data-name="Group 4970" transform="translate(0 1.062)">
              <path id="Path_3077" data-name="Path 3077" d="M844.37,1865.251a2.527,2.527,0,0,1-.484-.043c-1.585-.2-3.689-1.538-5.495-3.5a12.433,12.433,0,0,1-2.813-4.4,4.241,4.241,0,0,1,2.485-5.271c.163-.063.287-.1.35-.117,1.558-.65,4.325.727,6.753,3.367,2.454,2.669,3.6,5.642,2.742,7.1C846.843,1864.9,845.208,1865.251,844.37,1865.251Zm-.284-.983c.086.022,1.818.412,2.949-2.292a.486.486,0,0,1,.035-.069c.56-.9-.28-3.438-2.612-5.974-2.279-2.479-4.729-3.551-5.693-3.123a.477.477,0,0,1-.083.028h0a2.678,2.678,0,0,0-.275.091,3.28,3.28,0,0,0-1.915,4.08,11.509,11.509,0,0,0,2.605,4.046c1.64,1.783,3.571,3.04,4.92,3.2A.5.5,0,0,1,844.086,1864.268Z" transform="translate(-835.37 -1851.756)" fill="#5e5e5e"/>
            </g>
          </g>
        </g>
      </g>
    </g>
  </g>
</svg>
