<svg xmlns="http://www.w3.org/2000/svg" xmlns:xlink="http://www.w3.org/1999/xlink" width="235" height="201.044" viewBox="0 0 235 201.044">
  <defs>
    <linearGradient id="linear-gradient" x1="0.095" y1="0.797" x2="1.313" y2="-0.13" gradientUnits="objectBoundingBox">
      <stop offset="0" stop-color="#f0de9f"/>
      <stop offset="1" stop-color="#787350"/>
    </linearGradient>
    <linearGradient id="linear-gradient-2" x1="0.5" x2="0.5" y2="1" gradientUnits="objectBoundingBox">
      <stop offset="0" stop-color="#10101a"/>
      <stop offset="1" stop-color="#1e1e33"/>
    </linearGradient>
    <linearGradient id="linear-gradient-3" x1="0.5" x2="0.5" y2="1" gradientUnits="objectBoundingBox">
      <stop offset="0" stop-color="#63a4f8"/>
      <stop offset="1" stop-color="#39418b"/>
    </linearGradient>
    <linearGradient id="linear-gradient-8" x1="0.5" x2="0.5" y2="1" gradientUnits="objectBoundingBox">
      <stop offset="0" stop-color="#8b3939"/>
      <stop offset="1" stop-color="#f86d63"/>
    </linearGradient>
  </defs>
  <g id="Group_5105" data-name="Group 5105" transform="translate(-75 -132)">
    <g id="sad" transform="translate(110.5 179.5)">
      <path id="Path_26" data-name="Path 26" d="M76.766,0A76.766,76.766,0,1,1,0,76.766,76.766,76.766,0,0,1,76.766,0Z" transform="translate(0.012 0)" fill="url(#linear-gradient)"/>
      <path id="Path_18" data-name="Path 18" d="M51.7,152.009C3.373,124.105.438,55.773,45.139,23.523A76.632,76.632,0,1,0,121.515,155.5,76.52,76.52,0,0,1,51.7,152.009Z" transform="translate(0 -16.468)" fill="#f0de9f"/>
      <ellipse id="Ellipse_9" data-name="Ellipse 9" cx="7.003" cy="8.928" rx="7.003" ry="8.928" transform="translate(45.471 70.81)" fill="#181829" opacity="0.8"/>
      <path id="Path_19" data-name="Path 19" d="M163.974,250.287c-3.867,0-7-4-7-8.928a10.617,10.617,0,0,1,1.326-5.225c-3.718.214-6.682,4.124-6.682,8.918,0,4.931,3.135,8.928,7,8.928a6.679,6.679,0,0,0,5.676-3.7C164.188,250.282,164.081,250.287,163.974,250.287Z" transform="translate(-106.143 -165.314)" fill="url(#linear-gradient-2)"/>
      <g id="Group_4341" data-name="Group 4341" transform="translate(37.695 53.428)">
        <path id="Path_20" data-name="Path 20" d="M197.2,354.581a2.318,2.318,0,0,1-1.151-3.068c7.008-15.422,28.833-15.111,35.67,0a2.318,2.318,0,0,1-4.223,1.91c-5.232-11.566-21.889-11.747-27.228,0A2.571,2.571,0,0,1,197.2,354.581Z" transform="translate(-174.799 -291.501)" fill="#181829"/>
        <path id="Path_21" data-name="Path 21" d="M334.953,188.483a19.74,19.74,0,0,0-14.041-5.7,2.317,2.317,0,1,1-.094-4.633,24.315,24.315,0,0,1,17.339,6.985,2.317,2.317,0,1,1-3.2,3.349Z" transform="translate(-260.706 -178.143)" fill="#181829"/>
        <path id="Path_22" data-name="Path 22" d="M126.329,188.411a2.317,2.317,0,0,1,.073-3.276,24.341,24.341,0,0,1,17.339-6.985,2.317,2.317,0,1,1-.094,4.633,19.743,19.743,0,0,0-14.041,5.7A2.317,2.317,0,0,1,126.329,188.411Z" transform="translate(-125.686 -178.145)" fill="#181829"/>
      </g>
      <path id="Path_23" data-name="Path 23" d="M106.25,353.819h0A11.712,11.712,0,0,0,116.973,337.4l-8.608-16.52a2.114,2.114,0,0,0-3.75,0l-8.8,16.951A11.4,11.4,0,0,0,106.25,353.819Z" transform="translate(-66.392 -223.846)" fill="url(#linear-gradient-3)"/>
      <path id="Path_24" data-name="Path 24" d="M103.945,340.379l2.517-18.935a2.076,2.076,0,0,1,.937-1.487,2.111,2.111,0,0,0-2.786.932l-8.8,16.951a11.4,11.4,0,0,0,10.44,15.987h0a11.6,11.6,0,0,0,6.061-1.683A11.4,11.4,0,0,1,103.945,340.379Z" transform="translate(-66.391 -223.855)" fill="url(#linear-gradient-3)"/>
      <ellipse id="Ellipse_10" data-name="Ellipse 10" cx="7.003" cy="8.928" rx="7.003" ry="8.928" transform="translate(94.08 70.81)" opacity="0.8" fill="url(#linear-gradient-2)"/>
      <path id="Path_25" data-name="Path 25" d="M326.045,250.287c-3.867,0-7-4-7-8.928a10.617,10.617,0,0,1,1.326-5.225c-3.718.214-6.682,4.124-6.682,8.918,0,4.931,3.135,8.928,7,8.928a6.679,6.679,0,0,0,5.676-3.7C326.259,250.282,326.152,250.287,326.045,250.287Z" transform="translate(-219.607 -165.314)" fill="url(#linear-gradient-2)"/>
    </g>
    <circle id="Ellipse_11" data-name="Ellipse 11" cx="4.5" cy="4.5" r="4.5" transform="translate(80 151)" fill="#ba52b4"/>
    <circle id="Ellipse_15" data-name="Ellipse 15" cx="4.5" cy="4.5" r="4.5" transform="translate(301 238)" fill="url(#linear-gradient-3)"/>
    <circle id="Ellipse_12" data-name="Ellipse 12" cx="9.5" cy="9.5" r="9.5" transform="translate(154 132)" fill="#f0de9f"/>
    <circle id="Ellipse_13" data-name="Ellipse 13" cx="9.5" cy="9.5" r="9.5" transform="translate(75 291)" fill="#537fcf"/>
    <circle id="Ellipse_14" data-name="Ellipse 14" cx="9.5" cy="9.5" r="9.5" transform="translate(267 310)" fill="url(#linear-gradient-8)"/>
  </g>
</svg>
