<svg xmlns="http://www.w3.org/2000/svg" width="32" height="16" viewBox="0 0 32 16">
  <g id="Group_4352" data-name="Group 4352" transform="translate(-308 -1883.412)">
    <rect id="Rectangle_215" data-name="Rectangle 215" width="16" height="16" transform="translate(324 1883.412)" fill="#f0de9f" opacity="0"/>
    <g id="Group_4457" data-name="Group 4457" transform="translate(308 1883.412)">
      <path id="Path_47" data-name="Path 47" d="M71.6,26.813H64.271a4.306,4.306,0,0,0-3,1.217V27.48a.667.667,0,0,0-1.333,0v3.055a.666.666,0,0,0,.667.667H63.66a.667.667,0,0,0,0-1.333h-2.1a2.978,2.978,0,0,1,2.709-1.722H71.6a3,3,0,0,1,3,3V38.48a3,3,0,0,1-3,3H64.271a3,3,0,0,1-3-3V34.813a.667.667,0,1,0-1.333,0V38.48a4.339,4.339,0,0,0,4.333,4.333H71.6a4.339,4.339,0,0,0,4.333-4.333V31.146A4.339,4.339,0,0,0,71.6,26.813Z" transform="translate(-59.938 -26.813)" fill="#f0de9f"/>
      <path id="Path_50" data-name="Path 50" d="M100.384,41.25a.5.5,0,0,1-.4-.232L97.7,37.851a1.022,1.022,0,0,1,0-1.119.465.465,0,0,1,.805,0l1.875,2.607,3.868-5.378a.465.465,0,0,1,.805,0,1.024,1.024,0,0,1,0,1.119l-4.271,5.937A.5.5,0,0,1,100.384,41.25Z" transform="translate(-93.368 -29.489)" fill="#f0de9f"/>
    </g>
  </g>
</svg>
