<svg xmlns="http://www.w3.org/2000/svg" width="12.999" height="13" viewBox="0 0 12.999 13">
  <g id="Group_5186" data-name="Group 5186" transform="translate(-440.5 -26.5)">
    <path id="Exclusion_4" data-name="Exclusion 4" d="M-2195-5090h-6a3,3,0,0,1-3-3v-2.5a2.987,2.987,0,0,1,2.5-2.955V-5099a3,3,0,0,1,3-3h1a3,3,0,0,1,3,3v.545a2.988,2.988,0,0,1,2.5,2.955v2.5A3,3,0,0,1-2195-5090Zm-3-6.3a1.411,1.411,0,0,0-1.41,1.41,1.407,1.407,0,0,0,.94,1.323v1.027a.47.47,0,0,0,.47.47.47.47,0,0,0,.469-.47v-1.027a1.408,1.408,0,0,0,.94-1.323A1.411,1.411,0,0,0-2198-5096.3Zm-.5-4.7a2,2,0,0,0-2,2v.5h5v-.5a2,2,0,0,0-2-2Z" transform="translate(2645 5129)" fill="#fff" stroke="rgba(0,0,0,0)" stroke-miterlimit="10" stroke-width="1"/>
  </g>
</svg>
