<svg xmlns="http://www.w3.org/2000/svg" width="24" height="225.339" viewBox="0 0 24 225.339">
  <g id="Group_5096" data-name="Group 5096" transform="translate(-30 -208)">
    <g id="Group_4547" data-name="Group 4547" transform="translate(0 48)">
      <rect id="Rectangle_2845" data-name="Rectangle 2845" width="24" height="24" rx="12" transform="translate(30 160)" fill="#f0de9f"/>
      <g id="Group_4351" data-name="Group 4351" transform="translate(-303 -1718.851)">
        <rect id="Rectangle_215" data-name="Rectangle 215" width="14" height="14" transform="translate(338 1882.851)" fill="#fff" opacity="0"/>
        <path id="Path_2747" data-name="Path 2747" d="M5.532,0H8.606a5.532,5.532,0,0,1,5.532,5.532A1.537,1.537,0,0,1,12.6,7.069H1.537A1.537,1.537,0,0,1,0,5.532,5.532,5.532,0,0,1,5.532,0Z" transform="translate(338 1889.92)" fill="#202020"/>
        <path id="Path_2748" data-name="Path 2748" d="M2.945,0A2.945,2.945,0,1,1,0,2.945,2.945,2.945,0,0,1,2.945,0Z" transform="translate(342.124 1882.851)" fill="#202020"/>
      </g>
    </g>
    <g id="Group_5095" data-name="Group 5095">
      <path id="Path_2738" data-name="Path 2738" d="M1756,2230v187.329" transform="translate(-1714 -1984.99)" fill="none" stroke="#f0de9f" stroke-linecap="round" stroke-width="2" stroke-dasharray="10 10"/>
      <path id="Path_2749" data-name="Path 2749" d="M1749.375,2181.008l6.827-6.827,6.827,6.827" transform="translate(-1714 -1930)" fill="none" stroke="#f0de9f" stroke-linecap="round" stroke-linejoin="round" stroke-width="2"/>
    </g>
  </g>
</svg>
