<svg id="Component_10_11" data-name="Component 10 – 11" xmlns="http://www.w3.org/2000/svg" width="24" height="23.754" viewBox="0 0 24 23.754">
  <g id="Group_4540" data-name="Group 4540" transform="translate(-237 -27)">
    <path id="Path_2745" data-name="Path 2745" d="M249,27a11.308,11.308,0,0,0-4.333.861h0a10.151,10.151,0,0,0-5.661,5.832l-1.648,4.471A5.892,5.892,0,0,0,243.06,46h11.88a5.892,5.892,0,0,0,5.7-7.836l-1.648-4.471a10.151,10.151,0,0,0-5.661-5.832h0A11.308,11.308,0,0,0,249,27Z" fill="#fff"/>
    <path id="Path_2746" data-name="Path 2746" d="M248.017,50.754a6.981,6.981,0,0,1-4.97-2.066,1,1,0,1,1,1.42-1.409,5.007,5.007,0,0,0,7.072.028,1,1,0,0,1,1.408,1.42A6.979,6.979,0,0,1,248.017,50.754Z" transform="translate(1)" fill="#fff"/>
  </g>
</svg>
