<svg xmlns="http://www.w3.org/2000/svg" width="12" height="12" viewBox="0 0 12 12">
  <g id="Group_5185" data-name="Group 5185" transform="translate(-370 -27)">
    <path id="Path_3168" data-name="Path 3168" d="M3,0H9a3,3,0,0,1,3,3V9a3,3,0,0,1-3,3H3A3,3,0,0,1,0,9V3A3,3,0,0,1,3,0Z" transform="translate(370 27)" fill="#fff"/>
    <path id="Path_2923" data-name="Path 2923" d="M381.755,30.871a.742.742,0,0,0-1.058,0l-2.446,2.479a1.423,1.423,0,0,1-2.027,0l-2.446-2.479a.742.742,0,0,0-1.058,0,.765.765,0,0,0,0,1.071l2.447,2.479a2.906,2.906,0,0,0,4.143,0l2.447-2.479A.765.765,0,0,0,381.755,30.871Z" transform="translate(-1.237 -1.836)" fill="#5e5e5e"/>
  </g>
</svg>
