<svg xmlns="http://www.w3.org/2000/svg" xmlns:xlink="http://www.w3.org/1999/xlink" width="9.025" height="11.849" viewBox="0 0 9.025 11.849">
  <defs>
    <linearGradient id="linear-gradient" x1="0.5" x2="0.5" y2="1" gradientUnits="objectBoundingBox">
      <stop offset="0" stop-color="#93bc6f"/>
      <stop offset="1" stop-color="#b1b963"/>
    </linearGradient>
  </defs>
  <g id="placeholder_1_" data-name="placeholder (1)" transform="translate(-61)">
    <g id="Group_5071" data-name="Group 5071" transform="translate(61)">
      <path id="Path_3089" data-name="Path 3089" d="M65.513,0A4.518,4.518,0,0,0,61,4.513a4.472,4.472,0,0,0,.9,2.705l3.334,4.491c.008.011.021.015.03.025a.336.336,0,0,0,.526-.025c.96-1.281,2.72-3.674,3.4-4.576h0l0-.006A4.513,4.513,0,0,0,65.513,0Zm0,6.947a2.435,2.435,0,1,1,2.435-2.435A2.441,2.441,0,0,1,65.513,6.947Z" transform="translate(-61)" fill="url(#linear-gradient)"/>
    </g>
  </g>
</svg>
