<svg xmlns="http://www.w3.org/2000/svg" xmlns:xlink="http://www.w3.org/1999/xlink" width="63" height="63" viewBox="0 0 63 63">
  <defs>
    <filter id="Rectangle_11" x="0" y="0" width="63" height="63" filterUnits="userSpaceOnUse">
      <feOffset dy="1" input="SourceAlpha"/>
      <feGaussianBlur stdDeviation="2.5" result="blur"/>
      <feFlood flood-opacity="0.161"/>
      <feComposite operator="in" in2="blur"/>
      <feComposite in="SourceGraphic"/>
    </filter>
  </defs>
  <g id="Group_20363" data-name="Group 20363" transform="translate(-123.5 -616.5)">
    <g transform="matrix(1, 0, 0, 1, 123.5, 616.5)" filter="url(#Rectangle_11)">
      <g id="Rectangle_11-2" data-name="Rectangle 11" transform="translate(7.5 6.5)" fill="#fff" stroke="#0974df" stroke-width="0.2">
        <rect width="48" height="48" rx="10" stroke="none"/>
        <rect x="0.1" y="0.1" width="47.8" height="47.8" rx="9.9" fill="none"/>
      </g>
    </g>
    <g id="search" transform="translate(145.535 637.561)">
      <path id="Path_804" data-name="Path 804" d="M4.263,144.7l-.67,2.5-2.448.052a9.636,9.636,0,0,1-.071-8.982h0l2.179.4.955,2.166a5.741,5.741,0,0,0,.054,3.865Z" transform="translate(0 -133.073)" fill="#fbbb00"/>
      <path id="Path_805" data-name="Path 805" d="M270.867,208.176a9.615,9.615,0,0,1-3.429,9.3h0l-2.745-.14-.388-2.425a5.733,5.733,0,0,0,2.467-2.927h-5.143v-3.805h9.239Z" transform="translate(-251.798 -200.354)" fill="#518ef8"/>
      <path id="Path_806" data-name="Path 806" d="M45,314.9h0a9.622,9.622,0,0,1-14.494-2.943l3.117-2.552a5.721,5.721,0,0,0,8.244,2.929Z" transform="translate(-29.363 -297.783)" fill="#28b446"/>
      <path id="Path_807" data-name="Path 807" d="M43.307,2.214,40.191,4.766a5.72,5.72,0,0,0-8.433,3L28.625,5.2h0A9.621,9.621,0,0,1,43.307,2.214Z" transform="translate(-27.549 0)" fill="#f14336"/>
    </g>
  </g>
</svg>
