<svg xmlns="http://www.w3.org/2000/svg" xmlns:xlink="http://www.w3.org/1999/xlink" width="147.361" height="59.803" viewBox="0 0 147.361 59.803">
  <defs>
    <linearGradient id="linear-gradient" x1="0.5" x2="0.5" y2="1" gradientUnits="objectBoundingBox">
      <stop offset="0" stop-color="#c9785f"/>
      <stop offset="1" stop-color="#a54d4d"/>
    </linearGradient>
    <linearGradient id="linear-gradient-2" x1="0.5" x2="0.5" y2="1" gradientUnits="objectBoundingBox">
      <stop offset="0" stop-color="#af6bad"/>
      <stop offset="1" stop-color="#7f4cb1"/>
    </linearGradient>
  </defs>
  <g id="Group_5180" data-name="Group 5180" transform="translate(-250.454 -414.273)">
    <g id="Group_5178" data-name="Group 5178" transform="translate(250.454 414.273)">
      <path id="Path_3162" data-name="Path 3162" d="M13.64,0a13.64,13.64,0,0,1,13.64,13.64V41.77A13.64,13.64,0,0,1,0,41.77V13.64A13.64,13.64,0,0,1,13.64,0Z" transform="translate(28.919 4.393)" fill="url(#linear-gradient)"/>
      <path id="Path_3161" data-name="Path 3161" d="M13.64,0H41.77A13.64,13.64,0,0,1,55.41,13.64h0a13.64,13.64,0,0,1-13.64,13.64H13.64A13.64,13.64,0,0,1,13.64,0Z" transform="translate(0 35.253) rotate(-39.511)" fill="url(#linear-gradient-2)"/>
      <path id="Path_3146" data-name="Path 3146" d="M295.616,482.27c-1.131-2-1.508-8.451,18.214-26.038l-21.461,17.759A13.567,13.567,0,0,0,295.616,482.27Z" transform="translate(-263.421 -427.253)" opacity="0.5"/>
    </g>
    <g id="Group_5179" data-name="Group 5179" transform="translate(317.557 426.888)">
      <path id="Path_3147" data-name="Path 3147" d="M347.613,434.887H358.1V436.9h-4v13.017h-2.465V436.9h-4.022Z" transform="translate(-347.613 -433.265)" fill="#fff"/>
      <path id="Path_3148" data-name="Path 3148" d="M365.926,434.118A1.568,1.568,0,1,1,367.5,435.7,1.56,1.56,0,0,1,365.926,434.118Zm.325,3.157h2.465V449.19h-2.465Z" transform="translate(-353.278 -432.539)" fill="#fff"/>
      <path id="Path_3149" data-name="Path 3149" d="M391.549,444.563c0-2.183-1.19-3.308-2.985-3.308-1.816,0-3.005,1.125-3.005,3.308v6.661h-2.444v-6.661c0-2.183-1.189-3.308-2.984-3.308-1.816,0-3.006,1.125-3.006,3.308v6.661H374.66V439.309h2.465v1.363a4.537,4.537,0,0,1,3.525-1.557,4.6,4.6,0,0,1,4.282,2.357,4.663,4.663,0,0,1,4.151-2.357c2.79,0,4.908,1.752,4.908,5.082v7.028h-2.443Z" transform="translate(-355.98 -434.573)" fill="#fff"/>
      <path id="Path_3150" data-name="Path 3150" d="M411.944,451.418A5.78,5.78,0,0,1,406,445.255c0-3.741,2.422-6.141,5.947-6.141a5.557,5.557,0,0,1,5.8,5.86,7.525,7.525,0,0,1-.087,1.211h-9.1a3.278,3.278,0,0,0,3.4,3.156,2.883,2.883,0,0,0,2.811-1.664h2.66A5.444,5.444,0,0,1,411.944,451.418ZM408.57,444.2h6.6a3.1,3.1,0,0,0-3.33-3.006A3.245,3.245,0,0,0,408.57,444.2Z" transform="translate(-365.674 -434.573)" fill="#fff"/>
      <path id="Path_3151" data-name="Path 3151" d="M347.613,466.915H358.1v2.011h-4v13.018h-2.465V468.926h-4.022Z" transform="translate(-347.613 -443.173)" fill="#fff"/>
      <path id="Path_3152" data-name="Path 3152" d="M368.861,483.252H366.4V471.336h2.465v1.73a3.883,3.883,0,0,1,3.569-1.924v2.552H371.8c-1.816,0-2.941.756-2.941,3.287Z" transform="translate(-353.424 -444.481)" fill="#fff"/>
      <path id="Path_3153" data-name="Path 3153" d="M382.849,471.142a5.068,5.068,0,0,1,4.13,1.924v-1.73h2.487v11.916h-2.487v-1.774a5.125,5.125,0,0,1-4.173,1.968c-3.092,0-5.579-2.53-5.579-6.206S379.714,471.142,382.849,471.142Zm.519,2.141a3.655,3.655,0,0,0-3.611,3.957,3.754,3.754,0,0,0,3.611,4.066,4.034,4.034,0,0,0,0-8.023Z" transform="translate(-356.774 -444.481)" fill="#fff"/>
      <path id="Path_3154" data-name="Path 3154" d="M404.291,471.142c2.919,0,4.822,1.449,5.493,3.957h-2.66a2.785,2.785,0,0,0-2.833-1.881c-1.989,0-3.309,1.47-3.309,4.065,0,2.617,1.32,4.087,3.309,4.087a2.722,2.722,0,0,0,2.833-1.881h2.66a5.353,5.353,0,0,1-5.493,3.957c-3.417,0-5.838-2.422-5.838-6.163C398.453,473.564,400.874,471.142,404.291,471.142Z" transform="translate(-363.34 -444.481)" fill="#fff"/>
      <path id="Path_3155" data-name="Path 3155" d="M418.425,465.506h2.466v9.3l4.325-5.212h3.417l-5.492,5.969,5.492,5.947H425.3l-4.411-5.125v5.125h-2.466Z" transform="translate(-369.519 -442.737)" fill="#fff"/>
      <path id="Path_3156" data-name="Path 3156" d="M440.526,483.446a5.781,5.781,0,0,1-5.947-6.163c0-3.741,2.422-6.141,5.947-6.141a5.557,5.557,0,0,1,5.8,5.86,7.6,7.6,0,0,1-.087,1.211h-9.1a3.277,3.277,0,0,0,3.4,3.156,2.882,2.882,0,0,0,2.81-1.665H446A5.445,5.445,0,0,1,440.526,483.446Zm-3.374-7.222h6.6a3.094,3.094,0,0,0-3.33-3.006A3.245,3.245,0,0,0,437.152,476.224Z" transform="translate(-374.516 -444.481)" fill="#fff"/>
      <path id="Path_3157" data-name="Path 3157" d="M457.549,483.252h-2.465V471.336h2.465v1.73a3.883,3.883,0,0,1,3.569-1.924v2.552h-.627c-1.816,0-2.941.756-2.941,3.287Z" transform="translate(-380.859 -444.481)" fill="#fff"/>
    </g>
  </g>
</svg>
