<svg xmlns="http://www.w3.org/2000/svg" width="16" height="16" viewBox="0 0 16 16">
  <g id="Group_5100" data-name="Group 5100" transform="translate(-40 -196)">
    <g id="Group_4804" data-name="Group 4804" transform="translate(-481 169)">
      <g id="Group_5101" data-name="Group 5101">
        <path id="Path_2926" data-name="Path 2926" d="M529.845,44.179a1.667,1.667,0,0,1-2.357-2.357l2.488-2.488-2.317-2.317c-.109-.007-.217-.017-.327-.017h-.667A5.667,5.667,0,0,0,521,42.667a3.666,3.666,0,0,0,3.667,3.667h4.667A3.666,3.666,0,0,0,533,42.667c0-.11-.01-.218-.017-.327l-.649-.65Z" transform="translate(0 -3.333)" fill="#fff"/>
        <path id="Path_2927" data-name="Path 2927" d="M529.155,31.155a1.668,1.668,0,0,1,2.357,0l.168.168A2.963,2.963,0,0,0,532,30a3,3,0,1,0-3.2,2.98A1.668,1.668,0,0,1,529.155,31.155Z" transform="translate(-1.667)" fill="#fff"/>
        <path id="Path_2928" data-name="Path 2928" d="M537.082,38.167l2.959-2.959a1,1,0,0,0-1.414-1.415l-2.959,2.96-2.96-2.96a1,1,0,0,0-1.414,1.415l2.96,2.959-2.96,2.959a1,1,0,0,0,0,1.415,1.025,1.025,0,0,0,1.414,0l2.96-2.96,2.959,2.96a1,1,0,0,0,1.414-1.415Z" transform="translate(-3.334 -2.167)" fill="#292929"/>
      </g>
    </g>
  </g>
</svg>
