<svg xmlns="http://www.w3.org/2000/svg" width="16" height="16" viewBox="0 0 16 16">
  <g id="Group_4803" data-name="Group 4803" transform="translate(-481 -27)">
    <path id="Path_2924" data-name="Path 2924" d="M491,44.375a1.658,1.658,0,0,1-1.179-.489l-2.667-2.667a1.667,1.667,0,0,1,2.357-2.357l1.3,1.3a.262.262,0,0,0,.371,0l.77-.77a5.655,5.655,0,0,0-4.622-2.4h-.667A5.667,5.667,0,0,0,481,42.677a3.688,3.688,0,0,0,3.7,3.657h4.634a3.665,3.665,0,0,0,3.64-3.241l-.795.795A1.658,1.658,0,0,1,491,44.375Z" transform="translate(0 -3.333)" fill="#fff"/>
    <circle id="Ellipse_64" data-name="Ellipse 64" cx="3" cy="3" r="3" transform="translate(484 27)" fill="#fff"/>
    <path id="Path_2925" data-name="Path 2925" d="M499.775,36.775a1.046,1.046,0,0,0-1.363.134l-4.021,4.02a.318.318,0,0,1-.451,0l-1.734-1.734a1.025,1.025,0,0,0-1.415,0,1,1,0,0,0,0,1.414l2.667,2.667a1,1,0,0,0,1.415,0l5-5a1,1,0,0,0-.1-1.5Z" transform="translate(-3.167 -3.194)" fill="#292929"/>
  </g>
</svg>
