<svg xmlns="http://www.w3.org/2000/svg" xmlns:xlink="http://www.w3.org/1999/xlink" width="33.217" height="40.204" viewBox="0 0 33.217 40.204">
  <defs>
    <linearGradient id="linear-gradient" x1="0.5" x2="0.5" y2="1" gradientUnits="objectBoundingBox">
      <stop offset="0" stop-color="#f0de9f"/>
      <stop offset="1" stop-color="#786f50"/>
    </linearGradient>
    <linearGradient id="linear-gradient-2" x1="0.5" x2="0.5" y2="1" gradientUnits="objectBoundingBox">
      <stop offset="0" stop-color="#93bc6f"/>
      <stop offset="1" stop-color="#b1b963"/>
    </linearGradient>
  </defs>
  <g id="Group_4864" data-name="Group 4864" transform="translate(-7.501 -4)">
    <g id="Group_4973" data-name="Group 4973" transform="translate(7.501 4)">
      <g id="Group_4972" data-name="Group 4972" transform="translate(0 0)">
        <g id="Group_4930" data-name="Group 4930" transform="translate(0 0)">
          <g id="Group_4870" data-name="Group 4870" transform="translate(0.18 10.957)">
            <g id="Group_4868" data-name="Group 4868" transform="translate(0.045 0.025)">
              <path id="Path_3003" data-name="Path 3003" d="M1150.458,1416.51a2.176,2.176,0,0,1-.437-.045c-.021,0-.043-.008-.065-.014l-23.206-5.46a2.285,2.285,0,0,1-1.311-.86l-.015-.018a2.278,2.278,0,0,1-.442-1.353V1388.74a2.062,2.062,0,0,1,.348-1.148l.079.043a1.167,1.167,0,0,0-.013,1.008,1.546,1.546,0,0,0,1.08.729l24.472,5.616a2.156,2.156,0,0,1,1.67,2.107v17.249A2.165,2.165,0,0,1,1150.458,1416.51Z" transform="translate(-1124.982 -1387.592)" fill="#f0de9f"/>
            </g>
            <g id="Group_4869" data-name="Group 4869">
              <path id="Path_3004" data-name="Path 3004" d="M1122.912,1386.25c-.384.9.151,1.579,1.1,1.8l.008,0,24.464,5.614a2.119,2.119,0,0,1,1.635,2.063v17.249a2.116,2.116,0,0,1-2.543,2.077l-.062-.014-23.207-5.461a2.236,2.236,0,0,1-1.3-.861h0a2.242,2.242,0,0,1-.433-1.327v-20.019a2.014,2.014,0,0,1,.34-1.123m-.075-.05a2.106,2.106,0,0,0-.355,1.173v20.019a2.323,2.323,0,0,0,.45,1.38l.027.037h0a2.331,2.331,0,0,0,1.324.859l23.207,5.461c.02.005.044.01.067.015a2.205,2.205,0,0,0,2.648-2.165v-17.249a2.2,2.2,0,0,0-1.7-2.151l-24.461-5.614h0l-.008,0h0a1.5,1.5,0,0,1-1.051-.706,1.124,1.124,0,0,1,.015-.97l-.158-.085Z" transform="translate(-1122.482 -1386.2)" fill="#66142e"/>
            </g>
          </g>
          <g id="Group_4874" data-name="Group 4874" transform="translate(0.09 13.391)">
            <g id="Group_4871" data-name="Group 4871" transform="translate(0)">
              <path id="Path_3005" data-name="Path 3005" d="M1118.119,1522.118a.178.178,0,0,1-.089-.024,2.069,2.069,0,0,1-.5-.4.18.18,0,1,1,.264-.244,1.715,1.715,0,0,0,.415.327.18.18,0,0,1-.09.336Z" transform="translate(-1117.482 -1521.397)" fill="#fff"/>
            </g>
            <g id="Group_4872" data-name="Group 4872" transform="translate(1.23 0.74)">
              <path id="Path_3006" data-name="Path 3006" d="M1209.778,1586.888a.185.185,0,0,1-.041,0l-1.134-.267a.18.18,0,1,1,.083-.351l1.134.267a.18.18,0,0,1-.041.355Zm1-.319a.18.18,0,0,1-.163-.255.5.5,0,0,0,.045-.212v-.868a.18.18,0,0,1,.36,0v.868a.859.859,0,0,1-.078.363A.18.18,0,0,1,1210.781,1586.569Zm-3.271-.214a.178.178,0,0,1-.041,0l-1.134-.267a.18.18,0,1,1,.082-.35l1.134.267a.18.18,0,0,1-.041.355Zm-2.268-.534a.184.184,0,0,1-.041,0l-1.134-.267a.18.18,0,0,1,.082-.351l1.134.267a.18.18,0,0,1-.041.355Zm-2.268-.534a.185.185,0,0,1-.041,0l-1.134-.267a.18.18,0,0,1,.083-.351l1.134.267a.18.18,0,0,1-.041.355Zm-2.268-.534a.178.178,0,0,1-.041,0l-1.134-.267a.18.18,0,0,1,.083-.351l1.134.267a.18.18,0,0,1-.041.355Zm10.138-.506a.18.18,0,0,1-.18-.18V1582.9a.18.18,0,0,1,.36,0v1.165A.18.18,0,0,1,1210.843,1584.248Zm-12.406-.028a.177.177,0,0,1-.041,0l-1.134-.267a.18.18,0,0,1,.083-.351l1.134.267a.18.18,0,0,1-.041.355Zm-2.268-.534a.186.186,0,0,1-.041,0l-1.134-.267a.18.18,0,1,1,.082-.35l1.134.267a.18.18,0,0,1-.041.355Zm-2.268-.534a.174.174,0,0,1-.042,0l-1.134-.267a.18.18,0,0,1,.082-.351l1.134.267a.18.18,0,0,1-.041.355Zm-2.268-.534a.177.177,0,0,1-.041,0l-1.134-.267a.18.18,0,0,1,.083-.35l1.134.267a.18.18,0,0,1-.041.355Zm-2.268-.534a.188.188,0,0,1-.042,0l-1.134-.267a.18.18,0,0,1,.082-.351l1.134.267a.18.18,0,0,1-.041.355Zm21.479-.168a.18.18,0,0,1-.18-.18v-1.165a.18.18,0,0,1,.36,0v1.165A.18.18,0,0,1,1210.843,1581.918Zm-23.747-.366a.181.181,0,0,1-.042,0l-.3-.07a5.5,5.5,0,0,1-.853-.223.18.18,0,0,1,.122-.339,5.218,5.218,0,0,0,.805.21l.3.071a.18.18,0,0,1-.041.355Zm23.747-1.964a.18.18,0,0,1-.18-.18v-1.165a.18.18,0,0,1,.36,0v1.165A.18.18,0,0,1,1210.843,1579.588Zm0-2.33a.18.18,0,0,1-.18-.18v-1.165a.18.18,0,1,1,.36,0v1.165A.18.18,0,0,1,1210.843,1577.257Zm0-2.33a.18.18,0,0,1-.18-.18v-1.165a.18.18,0,1,1,.36,0v1.165A.18.18,0,0,1,1210.843,1574.927Zm0-2.33a.18.18,0,0,1-.18-.18v-1.165a.18.18,0,0,1,.36,0v1.165A.18.18,0,0,1,1210.843,1572.6Zm0-2.33a.18.18,0,0,1-.18-.18v-1.165a.18.18,0,1,1,.36,0v1.165A.18.18,0,0,1,1210.843,1570.267Zm-.7-1.937a.176.176,0,0,1-.04,0l-1.136-.26a.18.18,0,0,1,.081-.351l1.136.26a.18.18,0,0,1-.04.355Zm-2.271-.521a.171.171,0,0,1-.041,0l-1.135-.261a.18.18,0,0,1,.08-.351l1.136.261a.18.18,0,0,1-.04.356Zm-2.271-.521a.175.175,0,0,1-.04,0l-1.136-.261a.18.18,0,1,1,.081-.351l1.135.261a.18.18,0,0,1-.04.355Zm-2.271-.521a.184.184,0,0,1-.041,0l-1.135-.261a.18.18,0,0,1,.081-.351l1.135.261a.18.18,0,0,1-.04.355Zm-2.271-.521a.176.176,0,0,1-.04,0l-1.136-.261a.18.18,0,1,1,.081-.351l1.136.26a.18.18,0,0,1-.04.356Zm-2.271-.521a.182.182,0,0,1-.04,0l-1.136-.261a.18.18,0,0,1,.08-.351l1.136.261a.18.18,0,0,1-.04.356Zm-2.271-.521a.175.175,0,0,1-.04,0l-1.136-.26a.18.18,0,0,1,.081-.351l1.136.26a.18.18,0,0,1-.04.355Zm-2.271-.521a.178.178,0,0,1-.041,0l-1.135-.261a.18.18,0,1,1,.08-.351l1.136.261a.18.18,0,0,1-.04.355Zm-2.271-.521a.177.177,0,0,1-.04,0l-1.135-.261a.18.18,0,1,1,.081-.351l1.135.261a.18.18,0,0,1-.04.355Zm-2.271-.521a.184.184,0,0,1-.041,0l-1.136-.261a.18.18,0,0,1,.081-.351l1.136.261a.18.18,0,0,1-.04.356Zm-2.271-.521a.177.177,0,0,1-.04,0l-1.136-.261a.18.18,0,0,1,.081-.351l1.136.261a.18.18,0,0,1-.04.355Z" transform="translate(-1185.787 -1562.497)" fill="#fff"/>
            </g>
            <g id="Group_4873" data-name="Group 4873" transform="translate(0 18.003)">
              <path id="Path_3007" data-name="Path 3007" d="M1117.918,2522.269a.18.18,0,0,1-.14-.066,1.479,1.479,0,0,1-.294-.591.18.18,0,1,1,.35-.085,1.124,1.124,0,0,0,.224.448.18.18,0,0,1-.14.294Z" transform="translate(-1117.479 -2521.389)" fill="#fff"/>
            </g>
          </g>
          <g id="Group_4877" data-name="Group 4877" transform="translate(0.27 11.007)" opacity="0.55">
            <g id="Group_4875" data-name="Group 4875">
              <path id="Path_3008" data-name="Path 3008" d="M1127.737,1389.838a2.012,2.012,0,0,0-.256.985v-.72a2.012,2.012,0,0,1,.34-1.123A1.269,1.269,0,0,0,1127.737,1389.838Z" transform="translate(-1127.481 -1388.979)" fill="#fff"/>
            </g>
            <g id="Group_4876" data-name="Group 4876">
              <path id="Path_3009" data-name="Path 3009" d="M1127.737,1389.838a2.012,2.012,0,0,0-.256.985v-.72a2.012,2.012,0,0,1,.34-1.123A1.269,1.269,0,0,0,1127.737,1389.838Z" transform="translate(-1127.481 -1388.979)" fill="none" stroke="#66142e" stroke-miterlimit="10" stroke-width="0"/>
            </g>
          </g>
          <g id="Group_4878" data-name="Group 4878" transform="translate(0.485 11.918)" opacity="0.55">
            <path id="Path_3010" data-name="Path 3010" d="M1166.755,1448.147v.72a2.119,2.119,0,0,0-1.635-2.063l-24.464-5.615-.008,0c-.879-.2-1.4-.807-1.167-1.609a1.5,1.5,0,0,0,1.167.888l.008,0,24.464,5.614A2.119,2.119,0,0,1,1166.755,1448.147Z" transform="translate(-1139.424 -1439.579)" fill="#fff"/>
          </g>
          <g id="Group_4881" data-name="Group 4881" transform="translate(0.526 11.728)" opacity="0.55">
            <g id="Group_4879" data-name="Group 4879">
              <path id="Path_3011" data-name="Path 3011" d="M1141.766,1428.979a1.655,1.655,0,0,0-.068.191.538.538,0,0,1-.016-.052C1141.707,1429.071,1141.735,1429.024,1141.766,1428.979Z" transform="translate(-1141.681 -1428.979)" fill="#fff"/>
            </g>
            <g id="Group_4880" data-name="Group 4880">
              <path id="Path_3012" data-name="Path 3012" d="M1141.766,1428.979a1.655,1.655,0,0,0-.068.191.538.538,0,0,1-.016-.052C1141.707,1429.071,1141.735,1429.024,1141.766,1428.979Z" transform="translate(-1141.681 -1428.979)" fill="none" stroke="#66142e" stroke-miterlimit="10" stroke-width="0"/>
            </g>
          </g>
          <g id="Group_4882" data-name="Group 4882" transform="translate(0 10.737)">
            <path id="Path_3013" data-name="Path 3013" d="M1138.182,1403.367a2.4,2.4,0,0,1-.482-.049c-.02,0-.048-.01-.077-.017l-23.2-5.459a2.508,2.508,0,0,1-1.941-2.451v-20.019a2.286,2.286,0,0,1,.386-1.273.27.27,0,0,1,.473.256.939.939,0,0,0-.02.818,1.332,1.332,0,0,0,.93.612l.008,0,24.464,5.615a2.38,2.38,0,0,1,1.844,2.326v17.249a2.391,2.391,0,0,1-2.386,2.39Zm-25.16-27.676v19.7a1.969,1.969,0,0,0,1.524,1.925l23.208,5.461.047.01a1.85,1.85,0,0,0,2.227-1.811v-17.249a1.842,1.842,0,0,0-1.426-1.8l-24.463-5.614-.009,0h0A2.033,2.033,0,0,1,1113.022,1375.691Z" transform="translate(-1112.482 -1373.979)" fill="#5e5e5e"/>
          </g>
          <g id="Group_4886" data-name="Group 4886" transform="translate(1.756 11.361)">
            <g id="Group_4883" data-name="Group 4883" transform="translate(0.413 0.045)">
              <path id="Path_3014" data-name="Path 3014" d="M1260.135,1418.8a2.075,2.075,0,0,0-1.6-2.02l-25.623-5.657h27.248a2.166,2.166,0,0,1,2.165,2.165v17.365a2.164,2.164,0,0,1-1.388,2.02,2.177,2.177,0,0,1-.757.143h-.045Z" transform="translate(-1232.912 -1411.127)" fill="#f0de9f"/>
            </g>
            <g id="Group_4885" data-name="Group 4885">
              <g id="Group_4884" data-name="Group 4884">
                <path id="Path_3015" data-name="Path 3015" d="M1237.654,1408.717a2.122,2.122,0,0,1,2.12,2.12V1428.2a2.1,2.1,0,0,1-.115.689,2.116,2.116,0,0,1-1.985,1.429v-13.971a2.12,2.12,0,0,0-1.634-2.063l-25.221-5.568h26.835m0-.09h-27.66l.806.178,25.221,5.569a2.03,2.03,0,0,1,1.563,1.975v14.063h.091a2.209,2.209,0,0,0,2.189-2.208v-17.365a2.212,2.212,0,0,0-2.21-2.21Z" transform="translate(-1209.994 -1408.627)" fill="#f0de9f"/>
              </g>
            </g>
          </g>
          <g id="Group_4887" data-name="Group 4887" transform="translate(28.798 12.248)" opacity="0.3">
            <path id="Path_3016" data-name="Path 3016" d="M2714.819,1459.2v17.365a2.119,2.119,0,0,1-1.359,1.978,2.131,2.131,0,0,1-.741.141v-13.972a2.118,2.118,0,0,0-.637-1.515v-3.8l.48-.27c1.145-.032,2.025-.25,1.793-1.249A2.1,2.1,0,0,1,2714.819,1459.2Z" transform="translate(-2712.081 -1457.879)" fill="url(#linear-gradient)"/>
          </g>
          <g id="Group_4888" data-name="Group 4888" transform="translate(2.311 11.181)">
            <path id="Path_3017" data-name="Path 3017" d="M1267.956,1420.77a.269.269,0,0,1-.27-.27v-13.971a1.842,1.842,0,0,0-1.426-1.8l-25.217-5.568a.27.27,0,0,1,.058-.534h26.835a2.393,2.393,0,0,1,2.39,2.39v17.365a2.388,2.388,0,0,1-2.367,2.388Zm-24.379-21.6,22.8,5.035a2.382,2.382,0,0,1,1.846,2.327v13.679a1.849,1.849,0,0,0,1.56-1.825v-17.365a1.852,1.852,0,0,0-1.85-1.85Z" transform="translate(-1240.831 -1398.627)" fill="#66142e"/>
          </g>
          <g id="Group_4889" data-name="Group 4889" transform="translate(3.03 11.55)" opacity="0.3">
            <path id="Path_3018" data-name="Path 3018" d="M1280.808,1419.143h5.337l.22,1.091Z" transform="translate(-1280.808 -1419.143)" fill="#5e5e5e"/>
          </g>
          <g id="Group_4890" data-name="Group 4890" transform="translate(11.844 11.422)" opacity="0.3">
            <path id="Path_3019" data-name="Path 3019" d="M1770.331,1414.071h17.142c2.025.04,2.421-.654,1.929-1.424-.632-.813-2.194-.748-4.022-.43Z" transform="translate(-1770.331 -1411.996)" fill="#f0de9f"/>
          </g>
          <g id="Group_4894" data-name="Group 4894" transform="translate(0.395 10.015)">
            <g id="Group_4891" data-name="Group 4891" transform="translate(0.045 0.045)">
              <path id="Path_3020" data-name="Path 3020" d="M1162.79,1366.3a4.68,4.68,0,0,1-1.039-.122l.019-.088a2.07,2.07,0,0,0,2.489-2.033v-17.249a2.074,2.074,0,0,0-1.6-2.019l-24.476-5.617a1.629,1.629,0,0,1-1.136-.776,1.253,1.253,0,0,1,.011-1.084,2.068,2.068,0,0,1,1.727-.929h28.531a2.168,2.168,0,0,1,2.165,2.165v17.365c.03,2.281-.921,2.924-2.8,3.367l-.026-.086a2.074,2.074,0,0,0,1.33-1.936v-17.365a2.033,2.033,0,0,0-.075-.551l0-.006v0a2.079,2.079,0,0,0-2-1.516h-26.422l24.818,5.479a2.168,2.168,0,0,1,1.514,1.3,2.134,2.134,0,0,1,.155.8v17.166a3.633,3.633,0,0,1-.845,2.8A3.1,3.1,0,0,1,1162.79,1366.3Z" transform="translate(-1136.929 -1336.381)" fill="#f0de9f"/>
            </g>
            <g id="Group_4893" data-name="Group 4893">
              <g id="Group_4892" data-name="Group 4892">
                <path id="Path_3021" data-name="Path 3021" d="M1164.855,1333.971a2.12,2.12,0,0,1,2.12,2.12v17.365c.031,2.292-.968,2.9-2.77,3.323a2.118,2.118,0,0,0,1.359-1.978v-17.365a2.078,2.078,0,0,0-.076-.564v0a2.121,2.121,0,0,0-2.043-1.555h-26.835l25.221,5.569a2.119,2.119,0,0,1,1.482,1.276,2.1,2.1,0,0,1,.152.787v17.166c.152,2.359-1.232,3.685-3.135,3.685a4.641,4.641,0,0,1-1.029-.121,2.115,2.115,0,0,0,2.543-2.077v-17.249a2.119,2.119,0,0,0-1.635-2.063l-24.464-5.614-.008,0c-.947-.22-1.483-.9-1.1-1.8a2.022,2.022,0,0,1,1.685-.9h28.531m0-.09h-28.531a2.112,2.112,0,0,0-1.76.942l0,.007,0,.008a1.3,1.3,0,0,0-.01,1.122,1.676,1.676,0,0,0,1.166.8h.012l24.464,5.615a2.029,2.029,0,0,1,1.565,1.975V1361.6a2.03,2.03,0,0,1-2.025,2.031,2.062,2.062,0,0,1-.41-.042l-.038.176a4.733,4.733,0,0,0,1.049.123,3.145,3.145,0,0,0,2.367-.947,3.677,3.677,0,0,0,.857-2.83v-17.163a2.18,2.18,0,0,0-.159-.821,2.213,2.213,0,0,0-1.544-1.329l-24.417-5.391h26.01a2.034,2.034,0,0,1,1.953,1.477h0l0,.014a2,2,0,0,1,.073.539V1354.8a2.029,2.029,0,0,1-1.3,1.894l.053.172a4.19,4.19,0,0,0,2.117-.986,3.263,3.263,0,0,0,.723-2.426v-17.364a2.212,2.212,0,0,0-2.21-2.21Z" transform="translate(-1134.423 -1333.881)" fill="#f0de9f"/>
              </g>
            </g>
          </g>
          <g id="Group_4897" data-name="Group 4897" transform="translate(25.272 37.735)" opacity="0.55">
            <g id="Group_4895" data-name="Group 4895">
              <path id="Path_3022" data-name="Path 3022" d="M2518.774,2873.579v.563a2.1,2.1,0,0,1-.662,1.538,4.155,4.155,0,0,1-1.881-.024A2.12,2.12,0,0,0,2518.774,2873.579Z" transform="translate(-2516.231 -2873.579)" fill="#fff"/>
            </g>
            <g id="Group_4896" data-name="Group 4896">
              <path id="Path_3023" data-name="Path 3023" d="M2518.774,2873.579v.563a2.1,2.1,0,0,1-.662,1.538,4.155,4.155,0,0,1-1.881-.024A2.12,2.12,0,0,0,2518.774,2873.579Z" transform="translate(-2516.231 -2873.579)" fill="none" stroke="#66142e" stroke-miterlimit="10" stroke-width="0"/>
            </g>
          </g>
          <g id="Group_4900" data-name="Group 4900" transform="translate(29.436 36.248)" opacity="0.55">
            <g id="Group_4898" data-name="Group 4898">
              <path id="Path_3024" data-name="Path 3024" d="M2747.481,2790.979a5.04,5.04,0,0,1,0,.63c0-.022,0-.045,0-.067Z" transform="translate(-2747.481 -2790.979)" fill="#fff"/>
            </g>
            <g id="Group_4899" data-name="Group 4899">
              <path id="Path_3025" data-name="Path 3025" d="M2747.481,2790.979a5.04,5.04,0,0,1,0,.63c0-.022,0-.045,0-.067Z" transform="translate(-2747.481 -2790.979)" fill="none" stroke="#66142e" stroke-miterlimit="10" stroke-width="0"/>
            </g>
          </g>
          <g id="Group_4903" data-name="Group 4903" transform="translate(30.177 30.936)" opacity="0.55">
            <g id="Group_4901" data-name="Group 4901">
              <path id="Path_3026" data-name="Path 3026" d="M2789.875,2496.618a2.1,2.1,0,0,0,.115-.688v.563a2.116,2.116,0,0,1-.309,1.1,7.417,7.417,0,0,1-1.051.315A2.122,2.122,0,0,0,2789.875,2496.618Z" transform="translate(-2788.631 -2495.929)" fill="#fff"/>
            </g>
            <g id="Group_4902" data-name="Group 4902">
              <path id="Path_3027" data-name="Path 3027" d="M2789.875,2496.618a2.1,2.1,0,0,0,.115-.688v.563a2.116,2.116,0,0,1-.309,1.1,7.417,7.417,0,0,1-1.051.315A2.122,2.122,0,0,0,2789.875,2496.618Z" transform="translate(-2788.631 -2495.929)" fill="none" stroke="#66142e" stroke-miterlimit="10" stroke-width="0"/>
            </g>
          </g>
          <g id="Group_4904" data-name="Group 4904" transform="translate(0.485 10.105)" opacity="0.55">
            <path id="Path_3028" data-name="Path 3028" d="M1171.863,1341v.563a2.12,2.12,0,0,0-2.12-2.12h-28.531a2.022,2.022,0,0,0-1.685.9,1.627,1.627,0,0,0-.091.275,1.28,1.28,0,0,1,.091-.838,2.023,2.023,0,0,1,1.685-.9h28.531A2.12,2.12,0,0,1,1171.863,1341Z" transform="translate(-1139.401 -1338.879)" fill="#fff"/>
          </g>
          <g id="Group_4905" data-name="Group 4905" transform="translate(25.272 18.001)" opacity="0.3">
            <path id="Path_3029" data-name="Path 3029" d="M2520.394,1795.695c.178,2.767-1.757,4.112-4.163,3.564a2.12,2.12,0,0,0,2.543-2.077v-17.249a2.112,2.112,0,0,0-.224-.949c-.2-1.36.819-1.934,1.693-1.242a2.1,2.1,0,0,1,.152.788Z" transform="translate(-2516.231 -1777.447)" fill="#f0de9f"/>
          </g>
          <g id="Group_4906" data-name="Group 4906" transform="translate(0.215 9.835)">
            <path id="Path_3030" data-name="Path 3030" d="M1150.493,1354.25a4.943,4.943,0,0,1-1.1-.128.27.27,0,0,1,.114-.528,1.85,1.85,0,0,0,2.219-1.812v-17.249a1.842,1.842,0,0,0-1.427-1.8l-24.463-5.614-.009,0h0a1.851,1.851,0,0,1-1.29-.894,1.469,1.469,0,0,1,.005-1.275.254.254,0,0,1,.023-.044,2.292,2.292,0,0,1,1.91-1.022h28.531a2.393,2.393,0,0,1,2.39,2.39v17.365c.032,2.406-1.068,3.137-2.978,3.586a.27.27,0,0,1-.158-.515,1.85,1.85,0,0,0,1.186-1.726v-17.365a1.852,1.852,0,0,0-1.85-1.85h-24.359l5.9,1.3,16.9,3.732a2.381,2.381,0,0,1,1.846,2.327v17.157a3.744,3.744,0,0,1-1.149,3.191A3.4,3.4,0,0,1,1150.493,1354.25Zm-24.531-27.658,24.464,5.615a2.38,2.38,0,0,1,1.844,2.326v17.249a2.38,2.38,0,0,1-.8,1.787,2.605,2.605,0,0,0,.925-.5,3.186,3.186,0,0,0,.959-2.754c0-.006,0-.011,0-.017v-17.165a1.842,1.842,0,0,0-1.426-1.8l-25.217-5.568a.27.27,0,0,1,.058-.534H1153.6a2.393,2.393,0,0,1,2.39,2.39v17.365a2.372,2.372,0,0,1-.13.777,2.421,2.421,0,0,1-.235.492c.85-.438,1.255-1.151,1.235-2.611v-17.369a1.852,1.852,0,0,0-1.85-1.85H1126.48a1.752,1.752,0,0,0-1.446.761.927.927,0,0,0-.01.8,1.331,1.331,0,0,0,.93.612l.008,0Z" transform="translate(-1124.4 -1323.881)" fill="#5e5e5e"/>
          </g>
          <g id="Group_4907" data-name="Group 4907" transform="translate(11.574 11.802)">
            <path id="Path_3031" data-name="Path 3031" d="M1772.9,1435.089h-17.3a.27.27,0,0,1,0-.54h17.142c1.4.026,1.731-.3,1.81-.439a.594.594,0,0,0-.108-.569.27.27,0,0,1,.455-.291,1.042,1.042,0,0,1,.125,1.124C1774.757,1434.848,1774.045,1435.089,1772.9,1435.089Z" transform="translate(-1755.331 -1433.123)" fill="#5e5e5e"/>
          </g>
          <g id="Group_4918" data-name="Group 4918" transform="translate(6.502 0.624)">
            <g id="Group_4910" data-name="Group 4910" transform="translate(0.225 0.225)">
              <g id="Group_4908" data-name="Group 4908" transform="translate(0.045 0.045)">
                <path id="Path_3032" data-name="Path 3032" d="M1504.936,839.84l-9.662.068-.015,0-2.174-.48-1.177-.26-1.448-.32-.223-1.051-.286-1.346-1.3-6.121a.234.234,0,0,1,.179-.277l6.847-1.457,1.041-.221,2.893-.616,1.333-.284h0l1.076-.23a.234.234,0,0,1,.277.179l.084.393.135.635,1.7,8,.286,1.346Z" transform="translate(-1488.64 -827.238)" fill="url(#linear-gradient-2)"/>
              </g>
              <g id="Group_4909" data-name="Group 4909">
                <path id="Path_3033" data-name="Path 3033" d="M1492.813,837.5l-.021,0-4.827-1.066-.516-2.425-1.3-6.121a.279.279,0,0,1,.214-.331l12.123-2.579,1.067-.229a.279.279,0,0,1,.331.214l2.655,12.472h-.055Zm-4.772-1.146,4.782,1.056,9.6-.068-2.632-12.364a.188.188,0,0,0-.224-.144l-13.19,2.808a.189.189,0,0,0-.145.224Z" transform="translate(-1486.14 -824.743)" fill="#66142e"/>
              </g>
            </g>
            <g id="Group_4911" data-name="Group 4911" transform="translate(0.27 0.27)" opacity="0.55">
              <path id="Path_3034" data-name="Path 3034" d="M1502.341,827.649l-.806.172h0l-4.225.9-7.887,1.679a.234.234,0,0,0-.18.277l1.3,6.121.286,1.346.174.823-.547-.121-.223-1.051-.286-1.346-1.3-6.121a.234.234,0,0,1,.179-.277l7.887-1.679,4.226-.9h0l1.076-.23a.234.234,0,0,1,.277.179Z" transform="translate(-1488.64 -827.238)" fill="#fff"/>
            </g>
            <g id="Group_4914" data-name="Group 4914" transform="translate(2.031 2.031)">
              <g id="Group_4912" data-name="Group 4912" transform="translate(0.053 0.053)">
                <path id="Path_3035" data-name="Path 3035" d="M1602.531,938.817l-8.3.065-3.351-.74-.292-1.37-.286-1.346-.874-4.107a1.231,1.231,0,0,0,.947-1.46l4.963-1.056,3.636-.774a1.231,1.231,0,0,0,1.46.947l1.373,6.45.286,1.346Z" transform="translate(-1589.431 -928.029)" fill="url(#linear-gradient-2)"/>
              </g>
              <g id="Group_4913" data-name="Group 4913">
                <path id="Path_3036" data-name="Path 3036" d="M1591.316,936.013h0l-3.38-.746-.584-2.744-.883-4.151.044-.009a1.187,1.187,0,0,0,.912-1.407l-.009-.044.044-.01,8.642-1.839.01.044a1.187,1.187,0,0,0,1.406.912l.044-.009.009.044,2.106,9.895Zm-3.309-.823,3.318.733,8.237-.064-2.074-9.744a1.277,1.277,0,0,1-1.459-.946l-8.512,1.812a1.278,1.278,0,0,1-.946,1.459Z" transform="translate(-1586.464 -925.062)" fill="#5e5e5e"/>
              </g>
            </g>
            <g id="Group_4915" data-name="Group 4915" transform="translate(4.714 0.788)" opacity="0.3">
              <path id="Path_3037" data-name="Path 3037" d="M1747.333,868.113l-9.662.068-.015,0-2.174-.48,2.587-10.832,1.041-.221,2.893-.616,2.906.694,1.7,8,.286,1.346Z" transform="translate(-1735.481 -856.029)" fill="#f0de9f"/>
            </g>
            <g id="Group_4916" data-name="Group 4916">
              <path id="Path_3038" data-name="Path 3038" d="M1490.2,825.376a.27.27,0,0,1-.264-.214l-2.636-12.382-1.04.222-.01,0-12.068,2.568,1.867,8.772a.27.27,0,1,1-.528.112l-1.875-8.807a.5.5,0,0,1,.387-.6l12.114-2.578.01,0,1.067-.228a.5.5,0,0,1,.6.387l2.644,12.418a.27.27,0,0,1-.264.326Z" transform="translate(-1473.637 -812.233)" fill="#5e5e5e"/>
            </g>
            <g id="Group_4917" data-name="Group 4917" transform="translate(1.86 1.86)">
              <path id="Path_3039" data-name="Path 3039" d="M1590.255,926.775a.225.225,0,0,1-.22-.178l-2.051-9.638a1.459,1.459,0,0,1-1.44-.933l-8.192,1.743a1.459,1.459,0,0,1-.933,1.44l1.471,6.909a.225.225,0,0,1-.441.094l-1.514-7.112a.225.225,0,0,1,.173-.267,1.007,1.007,0,0,0,.774-1.193.225.225,0,0,1,.173-.267l8.6-1.83a.225.225,0,0,1,.267.173,1.007,1.007,0,0,0,1.193.774.225.225,0,0,1,.267.173l2.095,9.841a.225.225,0,0,1-.22.272Z" transform="translate(-1576.93 -915.537)" fill="#5e5e5e"/>
            </g>
          </g>
          <g id="Group_4919" data-name="Group 4919" transform="translate(12.105 0.27)">
            <path id="Path_3040" data-name="Path 3040" d="M1801.519,796l-1.4,5.87-.94,3.935h-14.345l3.116-13.047a.234.234,0,0,1,.282-.173l13.116,3.134A.234.234,0,0,1,1801.519,796Z" transform="translate(-1784.831 -792.576)" fill="url(#linear-gradient-2)"/>
          </g>
          <g id="Group_4920" data-name="Group 4920" transform="translate(12.105 0.27)" opacity="0.55">
            <path id="Path_3041" data-name="Path 3041" d="M1801.519,796l-.066.275-12.834-3.066a.234.234,0,0,0-.282.173L1785.37,805.8h-.539l3.116-13.047a.234.234,0,0,1,.282-.173l13.116,3.134A.234.234,0,0,1,1801.519,796Z" transform="translate(-1784.831 -792.576)" fill="#fff"/>
          </g>
          <g id="Group_4921" data-name="Group 4921" transform="translate(11.835)">
            <path id="Path_3042" data-name="Path 3042" d="M1784.446,791.342H1770.1a.27.27,0,0,1-.263-.333l3.116-13.047a.5.5,0,0,1,.606-.373l13.117,3.134a.5.5,0,0,1,.373.607h0l-2.342,9.8A.27.27,0,0,1,1784.446,791.342Zm-14-.54h13.79l2.284-9.562-13.046-3.117Zm16.345-9.535h0Z" transform="translate(-1769.83 -777.576)" fill="#5e5e5e"/>
          </g>
          <g id="Group_4922" data-name="Group 4922" transform="translate(30.177 11.396)" opacity="0.3">
            <path id="Path_3043" data-name="Path 3043" d="M2791.4,1411.6v17.134c.03,2.292-.968,2.9-2.77,3.323a2.119,2.119,0,0,0,1.359-1.978v-17.365a2.082,2.082,0,0,0-.077-.564v0C2789.991,1410.675,2790.972,1409.674,2791.4,1411.6Z" transform="translate(-2788.631 -1410.536)" fill="url(#linear-gradient)"/>
          </g>
          <g id="Group_4923" data-name="Group 4923" transform="translate(13.493 2.135)">
            <path id="Path_3044" data-name="Path 3044" d="M1875.372,899.7l-1.872,7.836h-11.568l2.5-10.45a1.23,1.23,0,0,0,1.483-.911l8.551,2.042A1.231,1.231,0,0,0,1875.372,899.7Z" transform="translate(-1861.931 -896.179)" fill="url(#linear-gradient-2)"/>
          </g>
          <g id="Group_4924" data-name="Group 4924" transform="translate(16.587 9.281)">
            <path id="Path_3045" data-name="Path 3045" d="M2037.553,1293.156a3.178,3.178,0,0,0-3.6,4.158h6.01a3.177,3.177,0,0,0-2.409-4.158Z" transform="translate(-2033.778 -1293.099)" fill="url(#linear-gradient-2)"/>
          </g>
          <g id="Group_4925" data-name="Group 4925" transform="translate(17.611 11.056)">
            <path id="Path_3046" data-name="Path 3046" d="M2092,1394.08a.978.978,0,0,1-.795-.921l-.5-.1.122-.64.424.081a2.133,2.133,0,0,1,.364-.833l.584.268a1.933,1.933,0,0,0-.361.783c-.065.341.042.547.256.588s.35-.094.567-.462c.294-.509.664-.806,1.14-.715a.989.989,0,0,1,.783,1.007l.5.1-.122.64-.469-.089a1.921,1.921,0,0,1-.271.581l-.567-.279a1.584,1.584,0,0,0,.287-.656c.061-.321-.055-.5-.226-.537-.209-.04-.336.127-.578.52C2092.812,1393.954,2092.458,1394.169,2092,1394.08Z" transform="translate(-2090.699 -1391.672)" fill="#5e5e5e"/>
          </g>
          <g id="Group_4926" data-name="Group 4926" transform="translate(20.099 5.071)">
            <circle id="Ellipse_71" data-name="Ellipse 71" cx="0.905" cy="0.905" r="0.905" fill="url(#linear-gradient-2)"/>
          </g>
          <g id="Group_4927" data-name="Group 4927" transform="translate(20.975 7.775)" opacity="0.3">
            <path id="Path_3047" data-name="Path 3047" d="M2284.756,1211.2l-.94,3.935h-5.885a3.948,3.948,0,0,1,6.825-3.935Z" transform="translate(-2277.531 -1209.45)" fill="url(#linear-gradient)"/>
          </g>
          <g id="Group_4928" data-name="Group 4928" transform="translate(13.268 1.91)">
            <path id="Path_3048" data-name="Path 3048" d="M1861.224,895.491h-11.568a.225.225,0,0,1-.219-.277l2.5-10.45a.225.225,0,0,1,.271-.167,1.007,1.007,0,0,0,1.212-.744.225.225,0,0,1,.271-.167l8.551,2.042a.225.225,0,0,1,.167.271,1.006,1.006,0,0,0,.744,1.211.225.225,0,0,1,.167.271l-1.872,7.836A.225.225,0,0,1,1861.224,895.491Zm-11.283-.45h11.105l1.783-7.461a1.459,1.459,0,0,1-.9-1.462l-8.147-1.946a1.459,1.459,0,0,1-1.462.9Z" transform="translate(-1849.43 -883.679)" fill="#5e5e5e"/>
          </g>
          <g id="Group_4929" data-name="Group 4929" transform="translate(1.877 21.86)" opacity="0.79">
            <path id="Path_3049" data-name="Path 3049" d="M1241.949,1991.779v15.875a1.4,1.4,0,0,1-1.394,1.4,1.366,1.366,0,0,1-.284-.03l-.022,0-23.228-5.466a1.482,1.482,0,0,1-.291-.1C1226.684,2003.793,1236.614,1999.742,1241.949,1991.779Z" transform="translate(-1216.731 -1991.779)" fill="url(#linear-gradient)"/>
          </g>
        </g>
      </g>
    </g>
  </g>
</svg>
